<?xml version="1.0" standalone="no"?>
<!DOCTYPE svg PUBLIC "-//W3C//DTD SVG 1.1//EN" "http://www.w3.org/Graphics/SVG/1.1/DTD/svg11.dtd" >
<svg xmlns="http://www.w3.org/2000/svg" xmlns:xlink="http://www.w3.org/1999/xlink" version="1.1">
<metadata></metadata>
<defs>
<font id="soleillight_italic" horiz-adv-x="1126" >
<font-face units-per-em="2048" ascent="1524" descent="-524" />
<missing-glyph horiz-adv-x="512" />
<glyph unicode="&#xfb01;" horiz-adv-x="1187" d="M141 0l154 872h-115l23 127h114l31 168q33 184 119.5 289t234.5 105q72 0 148 -31l-39 -121q-55 25 -115 25q-94 0 -140.5 -66.5t-72.5 -212.5l-28 -156h276l-22 -127h-277l-153 -872h-138zM772 0l178 999h137l-178 -999h-137zM989 1223l35 192h137l-35 -192h-137z" />
<glyph unicode="&#xfb02;" horiz-adv-x="1185" d="M141 0l154 872h-115l23 127h114l31 168q33 184 119.5 289t234.5 105q72 0 148 -31l-39 -121q-55 25 -115 25q-94 0 -140.5 -66.5t-72.5 -212.5l-28 -156h276l-22 -127h-277l-153 -872h-138zM772 0l272 1536h138l-273 -1536h-137z" />
<glyph unicode="&#xfb03;" horiz-adv-x="1859" d="M141 0l154 872h-115l23 127h114l31 168q33 184 119.5 289t234.5 105q86 0 170 -41l-47 -117q-60 31 -129 31q-94 0 -140.5 -66.5t-72.5 -212.5l-28 -156h276l-22 -127h-277l-153 -872h-138zM813 0l154 872h-115l22 127h115l31 168q33 184 119.5 289t234.5 105 q72 0 148 -31l-39 -121q-55 25 -115 25q-94 0 -140.5 -66.5t-72.5 -212.5l-29 -156h277l-23 -127h-276l-154 -872h-137zM1444 0l178 999h137l-178 -999h-137zM1661 1223l35 192h137l-35 -192h-137z" />
<glyph unicode="&#xfb04;" horiz-adv-x="1857" d="M141 0l154 872h-115l23 127h114l31 168q33 184 119.5 289t234.5 105q86 0 170 -41l-47 -117q-60 31 -129 31q-94 0 -140.5 -66.5t-72.5 -212.5l-28 -156h276l-22 -127h-277l-153 -872h-138zM813 0l154 872h-115l22 127h115l31 168q33 184 119.5 289t234.5 105 q72 0 148 -31l-39 -121q-55 25 -115 25q-94 0 -140.5 -66.5t-72.5 -212.5l-29 -156h277l-23 -127h-276l-154 -872h-137zM1444 0l272 1536h137l-272 -1536h-137z" />
<glyph horiz-adv-x="0" />
<glyph horiz-adv-x="682" />
<glyph horiz-adv-x="0" />
<glyph horiz-adv-x="0" />
<glyph unicode="&#xd;" horiz-adv-x="1024" />
<glyph unicode=" "  horiz-adv-x="512" />
<glyph unicode="&#x09;" horiz-adv-x="512" />
<glyph unicode="&#xa0;" horiz-adv-x="512" />
<glyph unicode="!" horiz-adv-x="604" d="M106 0l37 207h172l-36 -207h-173zM195 403l122 816l37 215h181l-37 -215l-164 -816h-139z" />
<glyph unicode="&#x22;" horiz-adv-x="917" d="M227 913l76 521h156l-109 -521h-123zM666 913l75 521h156l-109 -521h-122z" />
<glyph unicode="#" horiz-adv-x="1488" d="M80 412l22 123h316l96 288h-209l23 123h227l139 412h142l-140 -412h265l139 412h141l-139 -412h305l-23 -123h-323l-96 -288h217l-23 -123h-235l-140 -412h-141l139 412h-264l-139 -412h-141l139 412h-297zM559 535h264l97 288h-265z" />
<glyph unicode="$" d="M31 172l102 102q168 -168 373 -168q128 0 229 82q105 82 105 209q0 112 -90 168q-43 32 -82 49q-78 34 -107 45q-112 45 -178 86q-70 43 -103.5 104t-37.5 159q0 153 127 262t297 112l36 195h111l-39 -203q182 -27 328 -155l-105 -91q-133 121 -329 121q-107 0 -195 -61 q-90 -63 -90 -166q-9 -65 70 -139q12 -11 106 -64l66 -28l63 -27q153 -68 226 -148.5t73 -212.5q0 -178 -141 -301q-139 -121 -328 -127l-35 -192h-110l37 199q-221 27 -379 190z" />
<glyph unicode="%" horiz-adv-x="1738" d="M219 1122q0 132 98 226q98 98 228 98q121 0 211 -90t90 -219q0 -130 -98 -228q-101 -96 -228 -96q-125 0 -213 88t-88 221zM221 51l1264 1405l84 -74l-1264 -1405zM334 1124q0 -83 55.5 -140.5t140.5 -57.5q80 0 140.5 62t60.5 147q0 83 -55.5 140.5t-140.5 57.5 q-80 0 -140.5 -62t-60.5 -147zM934 297q0 131 98 225q99 99 228 99q119 0 210 -91t91 -219t-99 -227q-101 -96 -227 -96q-121 0 -211 90t-90 219zM1049 299q0 -83 55.5 -141t140.5 -58q80 0 140.5 62t60.5 147q0 83 -56 141t-141 58q-80 0 -140 -61.5t-60 -147.5z" />
<glyph unicode="&#x26;" horiz-adv-x="1398" d="M113 412q0 159 87.5 264t237.5 155q-94 140 -94 244q0 161 119 271q118 112 295 112q120 0 221 -64t137 -171l-117 -31q-62 139 -258 139q-108 0 -184 -76t-76 -182q0 -81 60 -172l30 -45l35 -43l27 -33l-94 -88l-31 41q-258 -79 -258 -317q0 -138 94 -226t236 -88 q197 0 354 183l-160 172l92 84l451 -488l-92 -82l-201 215q-163 -211 -436 -211q-196 0 -336 119q-139 121 -139 318z" />
<glyph unicode="'" horiz-adv-x="479" d="M227 913l76 521h156l-109 -521h-123z" />
<glyph unicode="(" horiz-adv-x="671" d="M106 451q0 779 701 1142l53 -98q-238 -112 -422 -373q-90 -132 -141 -308t-51 -370q0 -195 80 -393q78 -193 215 -321l-84 -80q-351 333 -351 801z" />
<glyph unicode=")" horiz-adv-x="671" d="M-139 -252q244 115 420 373q92 131 143 306.5t51 371.5q0 195 -80 393q-78 193 -215 321l84 80q350 -332 350 -800q0 -780 -700 -1143z" />
<glyph unicode="*" horiz-adv-x="831" d="M156 1165l43 125l237 -86l6 254h131l-20 -252l242 84l41 -125l-244 -71l147 -207l-104 -74l-148 227l-165 -227l-103 74l168 207z" />
<glyph unicode="+" d="M68 578l20 122h438l78 439h123l-78 -439h438l-20 -122h-438l-78 -439h-123l78 439h-438z" />
<glyph unicode="," horiz-adv-x="512" d="M-18 -283l168 490h167l-202 -490h-133z" />
<glyph unicode="-" horiz-adv-x="911" d="M188 496l23 129h510l-25 -129h-508z" />
<glyph unicode="." horiz-adv-x="512" d="M88 0l37 207h172l-37 -207h-172z" />
<glyph unicode="/" horiz-adv-x="751" d="M-90 -49l878 1605l111 -53l-879 -1605z" />
<glyph unicode="0" d="M96 481q0 215 66 422q68 205 205 342q139 139 319 139q193 0 293 -145q100 -141 100 -360q0 -221 -67 -422q-64 -201 -205 -342q-140 -140 -318 -140q-192 0 -294 144q-99 144 -99 362zM244 471q0 -356 260 -356q133 0 235 129q98 123 145.5 292.5t47.5 352.5 q0 356 -258 356q-136 0 -238 -129q-96 -123 -144 -293t-48 -352z" />
<glyph unicode="1" horiz-adv-x="706" d="M221 1079l12 142q141 61 297 139h95l-242 -1360h-150l207 1167q-52 -23 -219 -88z" />
<glyph unicode="2" horiz-adv-x="1017" d="M57 0l19 147q370 333 573 572q176 206 176 350q0 78 -66 127t-159 49q-99 0 -180.5 -61.5t-106.5 -157.5l-137 41q37 144 166 229q131 88 274 88q151 0 258 -88t107 -225q0 -176 -197 -414q-197 -239 -510 -518h648l-21 -139h-844z" />
<glyph unicode="3" horiz-adv-x="1003" d="M10 184l123 62q80 -133 262 -133q136 0 240 82q106 81 106 217q0 98 -78.5 159.5t-201.5 61.5q-72 0 -144 -10l13 155q104 0 190 25q106 33 174 101t68 161q0 82 -60.5 132t-160.5 50q-193 0 -269 -149l-125 59q57 104 166.5 165.5t239.5 61.5q167 0 264.5 -82t97.5 -223 q0 -106 -64.5 -201t-180.5 -151q103 -35 165 -116t62 -181q0 -191 -145 -324q-143 -131 -351 -131q-138 0 -243 54t-148 155z" />
<glyph unicode="4" horiz-adv-x="1105" d="M63 379l17 176l751 805h175l-150 -852h203l-23 -129h-202l-68 -379h-150l68 379h-621zM227 508h480l112 645q-194 -232 -592 -645z" />
<glyph unicode="5" horiz-adv-x="1021" d="M25 186l131 64q76 -137 247 -137q150 0 259 100q110 101 110 256q0 105 -74.5 169t-193.5 64q-124 0 -234 -90l-98 66q99 376 158 682h688l-25 -139h-549q-47 -228 -104 -437q117 60 229 60q154 0 256 -105q103 -106 103 -260q0 -203 -148 -354q-144 -150 -360 -150 q-121 0 -238 60q-110 58 -157 151z" />
<glyph unicode="6" horiz-adv-x="1071" d="M88 414q0 337 229 608q233 275 580 418l51 -148q-487 -196 -643 -577q175 141 361 141q148 0 245 -100q101 -98 101 -254q0 -208 -146 -369q-146 -158 -360 -158q-194 0 -307 125q-111 126 -111 314zM246 391q0 -127 65 -203.5t185 -76.5q155 0 256 110q102 114 102 268 q0 95 -66 160.5t-167 65.5q-105 0 -205.5 -57.5t-163.5 -151.5q-6 -55 -6 -115z" />
<glyph unicode="7" horiz-adv-x="919" d="M74 39q287 471 755 1182h-690l25 139h850l-23 -148q-491 -749 -784 -1249z" />
<glyph unicode="8" horiz-adv-x="1101" d="M82 315q0 126 86 244q87 115 223 162q-67 35 -110 108.5t-43 151.5q0 176 143 289q144 114 336 114q134 0 241 -79q111 -80 111 -218q0 -114 -74 -223q-71 -104 -188 -155q84 -35 136 -112t52 -163q0 -196 -159 -328q-158 -131 -375 -131q-149 0 -264 95t-115 245z M242 322q0 -97 68.5 -154t176.5 -57q143 0 244 88q105 89 105 213q0 98 -70.5 163.5t-175.5 65.5q-138 0 -244 -92q-104 -88 -104 -227zM393 981q0 -87 62 -146t153 -59q122 0 211 80q92 83 92 205q0 86 -60 137t-155 51q-120 0 -213 -78q-90 -78 -90 -190z" />
<glyph unicode="9" horiz-adv-x="1071" d="M109 858q0 210 145 367q144 159 360 159q197 0 306 -124q112 -124 112 -314q0 -339 -229 -610q-230 -272 -580 -416l-51 148q487 196 643 577q-175 -141 -360 -141q-147 0 -248 98q-98 101 -98 256zM266 870q0 -95 66 -160t168 -65q105 0 204.5 57t163.5 152q6 56 6 115 q0 127 -64.5 203.5t-184.5 76.5q-158 0 -258 -112q-101 -110 -101 -267z" />
<glyph unicode=":" horiz-adv-x="512" d="M88 0l37 207h172l-37 -207h-172zM229 793l37 206h172l-37 -206h-172z" />
<glyph unicode=";" horiz-adv-x="512" d="M-59 -283l168 490h167l-202 -490h-133zM217 793l37 206h172l-37 -206h-172z" />
<glyph unicode="&#x3c;" d="M70 565l24 146l1065 401l-22 -135l-920 -344l805 -340l-21 -121z" />
<glyph unicode="=" d="M111 410l22 122h858l-22 -122h-858zM170 745l23 123h858l-23 -123h-858z" />
<glyph unicode="&#x3e;" d="M4 164l23 135l919 344l-805 340l21 121l932 -393l-25 -146z" />
<glyph unicode="?" horiz-adv-x="1075" d="M227 1059q12 167 121 282q108 117 283 117q158 0 258 -100q102 -102 102 -246q0 -191 -135 -299q-64 -51 -118 -80t-152 -69l-47 -265h-156l61 361l58 18q83 29 121 45t104 56q121 75 121 213q0 99 -67 165t-167 66q-107 0 -170 -70t-75 -194h-142zM305 0l37 207h172 l-37 -207h-172z" />
<glyph unicode="@" horiz-adv-x="1611" d="M109 371q0 301 210 524t510 223q320 0 500 -174q184 -172 184 -434q0 -115 -28 -227q-31 -112 -108.5 -187.5t-184.5 -75.5q-19 -2 -40.5 4.5t-46.5 24t-46.5 55t-32.5 91.5q-41 -74 -116 -117t-158 -43q-146 0 -236 96t-90 242q0 156 104 272q105 117 283 117 q125 0 229 -96l5 71h112q-22 -396 -22 -430q0 -109 22 -149.5t68 -40.5q77 0 127 127q49 125 49 270q0 216 -152 350q-150 135 -417 135q-251 0 -433 -182t-182 -438q0 -239 158 -397t397 -158q137 0 295 67v-118q-151 -68 -307 -68q-282 0 -469 193q-184 193 -184 473z M545 379q0 -100 63 -166t166 -66q65 0 137.5 55.5t114.5 143.5l10 166q-42 66 -103.5 101.5t-125.5 35.5q-128 0 -195 -82q-67 -79 -67 -188z" />
<glyph unicode="A" horiz-adv-x="1255" d="M-61 0l806 1434h144l293 -1434h-170l-62 317h-667l-172 -317h-172zM358 457h566l-146 770h-2z" />
<glyph unicode="B" horiz-adv-x="1224" d="M102 0l252 1434h332q211 0 335 -84.5t124 -237.5q0 -266 -279 -383q107 -30 166.5 -108.5t59.5 -180.5q0 -440 -699 -440h-291zM279 139h141q70 0 103 1t78 6t93 16q114 26 172.5 90t65.5 190q0 100 -81 161t-220 61h-260zM395 803h170q204 0 317 73.5t113 213.5 q0 54 -23.5 94.5t-60.5 62.5t-96 31q-80 16 -219 16h-115z" />
<glyph unicode="C" horiz-adv-x="1347" d="M152 604q0 234 100 424q102 194 293 311q192 119 432 119q229 0 391 -131l-96 -115q-116 107 -309 107q-290 0 -471 -205t-181 -496q0 -206 144 -356q144 -147 362 -147q183 0 332 88l76 -113q-192 -115 -416 -115q-275 0 -467 183q-190 181 -190 446z" />
<glyph unicode="D" horiz-adv-x="1464" d="M102 0l252 1434h355q322 0 495.5 -159.5t173.5 -463.5q0 -267 -127 -463t-356 -287q-162 -61 -332 -61h-461zM279 139h237q332 0 517.5 179t185.5 495q0 227 -139 354t-380 127h-219z" />
<glyph unicode="E" horiz-adv-x="1163" d="M102 0l252 1434h834l-25 -140h-682l-86 -483h684l-24 -139h-684l-92 -533h682l-25 -139h-834z" />
<glyph unicode="F" horiz-adv-x="983" d="M102 0l252 1434h697l-25 -140h-545l-92 -524h545l-25 -139h-544l-111 -631h-152z" />
<glyph unicode="G" horiz-adv-x="1566" d="M152 604q0 226 98 418q103 196 289 315q189 121 426 121q153 0 289 -63t227 -176l-125 -93q-150 193 -395 193q-291 0 -472 -205q-178 -205 -178 -496q0 -204 144 -354q143 -149 360 -149q215 0 395 133l68 387h-373l25 139h524l-102 -579q-208 -220 -551 -220 q-272 0 -461 183q-188 185 -188 446z" />
<glyph unicode="H" horiz-adv-x="1521" d="M102 0l252 1434h152l-111 -625h834l110 625h152l-252 -1434h-152l117 670h-833l-117 -670h-152z" />
<glyph unicode="I" horiz-adv-x="536" d="M102 0l252 1434h152l-252 -1434h-152z" />
<glyph unicode="J" horiz-adv-x="690" d="M-51 23l39 124q74 -32 157 -32q92 0 136 78q31 61 51 184l186 1057h152l-189 -1078q-26 -149 -63 -227q-77 -154 -273 -154q-85 0 -196 48z" />
<glyph unicode="K" horiz-adv-x="1228" d="M102 0l252 1434h152l-135 -768l774 768h203l-568 -560l340 -874h-162l-299 754l-329 -326l-76 -428h-152z" />
<glyph unicode="L" horiz-adv-x="1011" d="M102 0l252 1434h152l-227 -1295h641l-25 -139h-793z" />
<glyph unicode="M" horiz-adv-x="1808" d="M102 0l252 1434h252l242 -1227h2l674 1227h254l-252 -1434h-146l232 1311h-2l-736 -1311h-126l-269 1305h-2l-229 -1305h-146z" />
<glyph unicode="N" horiz-adv-x="1511" d="M102 0l252 1434h121l651 -1164l203 1164h152l-252 -1434h-123l-649 1161l-203 -1161h-152z" />
<glyph unicode="O" horiz-adv-x="1695" d="M152 604q0 230 102 424t293 311q189 119 428 119q267 0 457 -184q190 -181 190 -445q0 -353 -233 -604q-235 -250 -592 -250q-265 0 -457 183q-188 185 -188 446zM311 618q0 -206 144 -356q144 -147 360 -147q290 0 467 204q180 204 180 498q0 204 -145 352 q-144 150 -359 150q-288 0 -469 -205q-178 -205 -178 -496z" />
<glyph unicode="P" horiz-adv-x="1191" d="M102 0l252 1434h346q492 0 492 -351q0 -256 -170 -376q-170 -117 -438 -117h-228l-102 -590h-152zM381 729h199q119 0 217 25q103 28 169 104t66 189q0 138 -87 192.5t-275 54.5h-189z" />
<glyph unicode="Q" horiz-adv-x="1705" d="M152 604q0 230 102 424t293 311q189 119 428 119q267 0 457 -184q190 -181 190 -445q0 -207 -86 -388t-240 -300l148 -176l-111 -94l-162 192q-166 -88 -374 -88q-265 0 -457 183q-188 185 -188 446zM311 618q0 -206 144 -356q144 -147 360 -147q149 0 266 57l-190 229 l110 95l205 -248q121 98 188.5 247.5t67.5 321.5q0 204 -145 352q-144 150 -359 150q-288 0 -469 -205q-178 -205 -178 -496z" />
<glyph unicode="R" horiz-adv-x="1230" d="M102 0l252 1434h299q265 0 395 -79.5t130 -254.5q0 -208 -122 -328t-331 -141l346 -631h-172l-338 625h-199l-108 -625h-152zM387 764h168q463 0 463 299q0 128 -88 179.5t-303 51.5h-146z" />
<glyph unicode="S" horiz-adv-x="1212" d="M35 182l106 101q167 -170 394 -170q130 0 239 86q109 89 109 221q0 61 -21 103.5t-69 74.5q-51 38 -84 51q-55 27 -111 47q-127 53 -129 54q-42 20 -102 65q-111 83 -111 248t139 280t322 115q253 0 446 -172l-100 -92q-137 125 -356 125q-106 0 -203 -66 q-94 -64 -94 -174q0 -90 82 -149q65 -46 182 -96l108 -50q40 -17 97 -55q67 -44 90 -76q78 -98 78 -227q0 -193 -156 -322t-361 -129q-291 0 -495 207z" />
<glyph unicode="T" horiz-adv-x="964" d="M172 1294l25 140h888l-24 -140h-369l-227 -1294h-152l228 1294h-369z" />
<glyph unicode="U" horiz-adv-x="1462" d="M188 420q0 105 23 250l135 764h152l-144 -811q-16 -94 -16 -170q0 -166 97.5 -252t264.5 -86q354 0 443 501l143 818h152l-133 -758q-63 -368 -210 -534.5t-407 -166.5q-220 0 -360 107q-140 110 -140 338z" />
<glyph unicode="V" horiz-adv-x="1267" d="M170 1434h170l233 -1227h2l666 1227h172l-807 -1434h-143z" />
<glyph unicode="W" horiz-adv-x="1875" d="M168 1434h164l104 -1198h6l545 1198h172l107 -1198l551 1198h165l-661 -1434h-180l-105 1208h-6l-557 -1208h-164z" />
<glyph unicode="X" horiz-adv-x="1280" d="M-80 0l662 737l-383 697h190l320 -584l520 584h205l-652 -719l400 -715h-187l-336 600l-532 -600h-207z" />
<glyph unicode="Y" horiz-adv-x="1095" d="M170 1434h168l235 -664h5l471 664h172l-596 -816l-111 -618h-149l110 633z" />
<glyph unicode="Z" horiz-adv-x="1103" d="M31 0l8 141l876 1153h-667l14 140h883v-91l-914 -1204h754l-12 -139h-942z" />
<glyph unicode="[" horiz-adv-x="602" d="M25 -348l333 1884h400l-23 -123h-262l-289 -1638h262l-22 -123h-399z" />
<glyph unicode="\" horiz-adv-x="724" d="M131 1542l121 27l330 -1649l-121 -26z" />
<glyph unicode="]" horiz-adv-x="602" d="M-135 -348l22 123h263l288 1638h-260l21 123h399l-334 -1884h-399z" />
<glyph unicode="^" horiz-adv-x="1044" d="M152 727l428 657h112l195 -657h-111l-158 520l-342 -520h-124z" />
<glyph unicode="_" d="M-8 -494l14 97h1129l-15 -97h-1128z" />
<glyph unicode="`" horiz-adv-x="737" d="M143 1479l115 73l203 -340l-96 -61z" />
<glyph unicode="a" horiz-adv-x="1075" d="M86 268q0 65 27 121.5t73 96.5t105 68t123 42q56 12 112 12h17q130 0 254 -39l12 66q8 36 8 74q0 188 -246 188q-147 0 -317 -78l-41 113q186 92 383 92q356 0 356 -311q0 -37 -6 -80l-112 -633h-138l15 84q-121 -109 -289 -109q-154 0 -245 74.5t-91 218.5zM225 276 q0 -86 55 -134t148 -48q160 0 305 121l45 244q-131 35 -237 35q-115 0 -217 -54q-99 -52 -99 -164z" />
<glyph unicode="b" horiz-adv-x="1259" d="M100 0l273 1536h137l-119 -662q59 70 154 110t196 40q191 0 312 -133q123 -132 123 -318q0 -238 -166 -419q-167 -179 -402 -179q-101 0 -193 48t-151 133l-26 -156h-138zM293 311q47 -98 136.5 -153.5t195.5 -55.5q171 0 288 138q119 137 119 313q0 152 -86.5 248 t-232.5 96q-201 0 -351 -184z" />
<glyph unicode="c" horiz-adv-x="948" d="M88 426q0 240 156 418q155 180 387 180q179 0 303 -100l-84 -113q-89 86 -221 86q-177 0 -287 -137q-111 -138 -111 -328q0 -137 93 -233q94 -97 231 -97q116 0 205 62l61 -111q-125 -78 -268 -78q-199 0 -332 127t-133 324z" />
<glyph unicode="d" horiz-adv-x="1259" d="M86 426q0 240 166 418q165 180 401 180q101 0 191.5 -47t150.5 -131l123 690h137l-272 -1536h-137l20 121q-56 -68 -151.5 -107t-194.5 -39q-191 0 -313 131q-121 133 -121 320zM229 446q0 -152 87 -248t233 -96q203 0 348 183l72 403q-47 98 -136.5 153.5t-195.5 55.5 q-172 0 -291 -137q-117 -138 -117 -314z" />
<glyph unicode="e" d="M88 426q0 242 156 420t385 178q192 0 300.5 -110t108.5 -302q0 -94 -20 -147h-789v-33q0 -151 89 -244.5t231 -93.5q198 0 317 162l82 -80q-160 -201 -422 -201q-186 0 -313 127q-125 128 -125 324zM250 584h655q2 6 2 28q0 127 -77 210t-207 83q-132 0 -233 -89 t-140 -232z" />
<glyph unicode="f" horiz-adv-x="671" d="M141 0l154 872h-115l23 127h114l31 168q33 184 119.5 289t234.5 105q86 0 170 -41l-47 -117q-60 31 -129 31q-94 0 -140.5 -66.5t-72.5 -212.5l-28 -156h276l-22 -127h-277l-153 -872h-138z" />
<glyph unicode="g" horiz-adv-x="1241" d="M8 -287l74 113q177 -145 416 -145q162 0 245 83q75 75 99 213l30 177q-56 -71 -153.5 -112.5t-198.5 -41.5q-190 0 -313 129q-121 133 -121 309q0 233 166 408q169 178 401 178q100 0 191 -48t151 -132l29 155h135l-147 -839q-12 -74 -35 -176q-50 -200 -109 -271 q-64 -82 -155.5 -123t-237.5 -41q-255 0 -467 164zM229 459q0 -144 87.5 -238t232.5 -94q204 0 354 190l66 369q-47 99 -136.5 155t-195.5 56q-169 0 -289 -135q-119 -134 -119 -303z" />
<glyph unicode="h" horiz-adv-x="1228" d="M100 0l273 1536h137l-127 -711q172 199 385 199q140 0 223.5 -89.5t83.5 -242.5q0 -87 -14 -170l-92 -522h-138l87 485q24 147 24 189q0 223 -217 223q-177 0 -369 -223l-118 -674h-138z" />
<glyph unicode="i" horiz-adv-x="516" d="M100 0l179 999h137l-178 -999h-138zM317 1223l35 192h137l-34 -192h-138z" />
<glyph unicode="j" horiz-adv-x="530" d="M-262 -393l59 114q60 -45 117 -45q84 0 125.5 63t66.5 204l187 1056h137l-188 -1067q-70 -383 -316 -383q-100 0 -188 58zM332 1223l35 192h137l-35 -192h-137z" />
<glyph unicode="k" horiz-adv-x="1017" d="M100 0l273 1536h137l-199 -1116l553 579h178l-407 -413l276 -586h-163l-220 479l-252 -256l-38 -223h-138z" />
<glyph unicode="l" horiz-adv-x="514" d="M100 0l273 1536h137l-272 -1536h-138z" />
<glyph unicode="m" horiz-adv-x="1878" d="M100 0l179 999h137l-31 -172q167 197 363 197q103 0 178 -65t98 -177q187 242 414 242q126 0 206 -91t80 -241q0 -87 -14 -170l-92 -522h-137l86 485q24 147 24 189q0 223 -196 223q-84 0 -180.5 -68t-182.5 -194q-3 -61 -12 -113l-92 -522h-137l86 485q24 147 24 189 q0 223 -196 223q-156 0 -347 -221l-120 -676h-138z" />
<glyph unicode="n" horiz-adv-x="1228" d="M100 0l179 999h137l-31 -172q167 197 383 197q140 0 223.5 -89.5t83.5 -242.5q0 -87 -14 -170l-92 -522h-138l87 485q24 147 24 189q0 223 -217 223q-176 0 -367 -221l-120 -676h-138z" />
<glyph unicode="o" horiz-adv-x="1183" d="M88 426q0 240 156 418q155 180 387 180q199 0 332 -127t133 -324q0 -235 -158 -419q-156 -179 -385 -179q-199 0 -332 127t-133 324zM231 432q0 -137 93 -233q94 -97 231 -97q176 0 287 138q110 137 110 327q0 139 -92 234q-93 96 -231 96q-177 0 -287 -137 q-111 -138 -111 -328z" />
<glyph unicode="p" horiz-adv-x="1259" d="M6 -537l270 1536h138l-23 -122q59 68 154.5 107.5t193.5 39.5q191 0 312 -133q123 -132 123 -318q0 -238 -166 -419q-167 -179 -402 -179q-100 0 -191 47.5t-151 131.5l-121 -691h-137zM291 309q47 -97 136.5 -152t195.5 -55q171 0 288 138q119 137 119 313 q0 152 -86.5 248t-232.5 96q-199 0 -349 -184z" />
<glyph unicode="q" horiz-adv-x="1259" d="M84 426q0 240 166 418q165 180 401 180q100 0 191 -48t151 -132l29 155h137l-272 -1536h-137l116 660q-59 -68 -154.5 -108t-193.5 -40q-191 0 -313 131q-121 133 -121 320zM227 446q0 -152 87 -248t233 -96q198 0 348 185l72 399q-47 99 -136.5 155t-195.5 56 q-172 0 -291 -137q-117 -138 -117 -314z" />
<glyph unicode="r" horiz-adv-x="714" d="M98 0l178 999h138l-33 -176l2 -2q68 107 140 155t175 48q28 0 90 -10l-49 -150q-39 17 -82 17q-89 0 -157.5 -51t-145.5 -162l-118 -668h-138z" />
<glyph unicode="s" horiz-adv-x="835" d="M27 143l92 78q35 -59 101 -93t140 -34q85 0 145 51.5t60 133.5q-6 49 -21.5 76t-54.5 51q-11 7 -27.5 16t-17.5 10q-18 11 -57 27l-53 24q-98 46 -143.5 101t-45.5 147q0 134 101 213q103 80 229 80q176 0 275 -111l-78 -92q-36 38 -96.5 61t-118.5 23q-74 0 -125 -45.5 t-51 -118.5q0 -52 39.5 -87t138.5 -81q63 -31 94 -49.5t72 -52.5q84 -69 84 -190q0 -141 -109 -224q-107 -82 -250 -82q-238 0 -323 168z" />
<glyph unicode="t" horiz-adv-x="710" d="M129 872l21 127h145l43 250h137l-43 -250h289l-21 -127h-290l-91 -501q-16 -106 -16 -123q0 -63 38.5 -101t104.5 -38q60 0 107 30l29 -119q-55 -38 -174 -38q-106 0 -175 67t-69 170q0 58 14 135l94 518h-143z" />
<glyph unicode="u" horiz-adv-x="1228" d="M154 307q0 87 14 170l92 522h137l-86 -485q-24 -147 -24 -188q0 -224 217 -224q174 0 366 222l121 675h137l-178 -999h-137l31 172q-170 -197 -383 -197q-140 0 -223.5 89.5t-83.5 242.5z" />
<glyph unicode="v" horiz-adv-x="937" d="M92 999h148l143 -835h4l447 835h155l-561 -999h-135z" />
<glyph unicode="w" horiz-adv-x="1472" d="M104 999h146l74 -864l393 864h198l68 -870l393 870h152l-465 -999h-191l-81 868l-396 -868h-192z" />
<glyph unicode="x" horiz-adv-x="962" d="M-61 0l446 520l-240 479h160l191 -378l321 378h184l-436 -501l254 -498h-160l-202 395l-334 -395h-184z" />
<glyph unicode="y" horiz-adv-x="958" d="M86 -406l199 363l-170 1042h149l133 -835l447 835h155l-802 -1466z" />
<glyph unicode="z" horiz-adv-x="872" d="M31 0l4 86l592 786h-482l15 127h686v-57l-615 -815h508l-12 -127h-696z" />
<glyph unicode="{" horiz-adv-x="600" d="M41 575l22 136q86 30 146.5 125t87.5 233l20 109q40 222 132 305q88 82 262 82h57l-18 -115h-41q-119 0 -172.5 -63.5t-83.5 -221.5l-29 -147q-58 -307 -223 -387q106 -87 106 -252q0 -42 -20 -148l-25 -137q-16 -106 -16 -127q0 -235 211 -235h18l-18 -115h-60 q-131 0 -213 94q-80 95 -80 234q0 36 13 106l35 195q12 64 12 108q0 174 -123 221z" />
<glyph unicode="|" horiz-adv-x="610" d="M57 -348l371 2105h123l-371 -2105h-123z" />
<glyph unicode="}" horiz-adv-x="604" d="M-119 -383l19 115h41q119 0 172.5 63t83.5 221l32 174q58 302 224 383q-107 88 -107 256q0 37 21 148l20 110q16 106 16 127q0 236 -210 236h-19l19 115h59q131 0 211 -95q82 -94 82 -233q0 -37 -13 -107l-30 -167q-13 -70 -13 -109q0 -178 123 -225l-22 -135 q-86 -30 -147.5 -124.5t-86.5 -230.5l-24 -135q-40 -223 -131 -305q-88 -82 -262 -82h-58z" />
<glyph unicode="~" d="M66 551q0 25 6 63q19 103 98 163.5t195 60.5q46 2 97.5 -17.5t95.5 -48t86.5 -57.5t84.5 -48.5t76 -17.5q54 0 94.5 43t40.5 103h123q0 -32 -4 -64q-19 -106 -96.5 -164.5t-198.5 -58.5q-56 -3 -122 27t-115 67t-105.5 67t-97.5 27q-55 0 -95.5 -43t-40.5 -102h-122z" />
<glyph unicode="&#xa1;" horiz-adv-x="604" d="M31 -434l37 215l163 815h140l-123 -815l-37 -215h-180zM250 793l37 206h172l-37 -206h-172z" />
<glyph unicode="&#xa2;" d="M190 588q0 232 148 409q151 180 371 189l30 172h115l-31 -180q116 -17 213 -93l-84 -112q-89 86 -221 86q-177 0 -287 -137t-110 -328q0 -139 92 -234q93 -96 231 -96q116 0 205 62l62 -111q-125 -78 -269 -78h-16l-31 -174h-114l32 191q-151 37 -243.5 154.5 t-92.5 279.5z" />
<glyph unicode="&#xa3;" horiz-adv-x="1058" d="M86 0l25 139h118l93 525h-119l24 139h119l25 137q34 192 153 317q121 127 310 127q139 0 264 -73l-78 -121q-76 55 -191 55q-251 0 -321 -387l-10 -55h274l-24 -139h-275l-92 -525h532l-24 -139h-803z" />
<glyph unicode="&#xa4;" d="M66 291l120 106q-65 100 -65 209q0 196 131 336l-82 94l80 74l84 -96q131 90 291 90q146 0 252 -100l118 106l68 -74l-123 -108q64 -101 64 -205q0 -195 -130 -334l84 -98l-79 -74l-86 100q-133 -92 -293 -92q-134 0 -248 97l-119 -105zM250 614q0 -114 80 -188 q83 -74 192 -74q133 0 242 109q110 107 110 254q0 116 -81 188q-80 74 -191 74q-132 0 -244 -109q-108 -108 -108 -254z" />
<glyph unicode="&#xa5;" d="M76 254l22 131h359l20 121h-356l22 131h342l-278 721h166l225 -613h4l430 613h176l-534 -721h336l-23 -131h-356l-23 -121h357l-23 -131h-360l-47 -254h-142l41 254h-358z" />
<glyph unicode="&#xa6;" horiz-adv-x="610" d="M70 -416l131 748h123l-131 -748h-123zM281 788l131 748h123l-132 -748h-122z" />
<glyph unicode="&#xa7;" d="M63 -150l91 97q102 -111 260 -111q110 0 204 58q97 60 97 163q0 56 -64 109q-12 11 -43 26.5t-51 22.5q-103 45 -115 49q-139 59 -204.5 124t-65.5 171q0 113 65.5 203t186.5 133q-113 76 -113 205q0 157 119 258q118 100 291 100q185 0 307 -94l-80 -100q-86 71 -237 71 q-91 0 -174 -53q-82 -52 -82 -147q0 -72 73 -123q53 -31 74 -41l43 -19l94 -37q70 -30 109 -51t78 -55q88 -70 88 -193q0 -111 -67.5 -200.5t-186.5 -130.5q104 -76 104 -199q0 -165 -133 -268q-132 -105 -311 -105q-208 0 -357 137zM319 582q0 -40 18 -67.5t54 -59.5 q41 -30 107 -54q1 0 127 -47q108 31 174.5 98.5t66.5 153.5q-6 48 -28 78.5t-74 54.5q-43 24 -59 31l-76 29l-72 28q-95 -22 -166 -90q-72 -72 -72 -155z" />
<glyph unicode="&#xa8;" horiz-adv-x="737" d="M47 1223l33 192h143l-33 -192h-143zM428 1223l33 192h143l-33 -192h-143z" />
<glyph unicode="&#xa9;" horiz-adv-x="1634" d="M133 680q0 293 205 498q206 206 500 206q291 0 497 -206q207 -207 207 -498t-207 -498t-497 -207q-293 0 -500 207q-205 205 -205 498zM260 680q0 -241 168 -412q169 -172 410 -172q238 0 407 172q170 173 170 412t-170 412q-169 172 -407 172q-241 0 -410 -172 q-168 -171 -168 -412zM467 682q0 155 115 264q113 107 276 107q113 0 189 -49l-62 -107q-67 31 -133 31q-109 0 -177.5 -68t-68.5 -178q0 -116 67.5 -181t178.5 -65q79 0 143 43l62 -110q-104 -58 -199 -58q-161 0 -276 103t-115 268z" />
<glyph unicode="&#xaa;" horiz-adv-x="751" d="M143 973q0 120 103 182t229 62q60 0 150 -23l6 41q4 36 4 39q0 125 -150 125q-112 0 -225 -64l-33 99q129 69 279 69q120 0 182 -57t62 -162q0 -25 -7 -72l-75 -421h-107l4 51q-86 -68 -198 -68q-100 0 -162 52.5t-62 146.5zM256 987q0 -53 37 -83t94 -30q82 0 195 78 l26 156q-73 18 -143 18q-87 0 -148 -35.5t-61 -103.5z" />
<glyph unicode="&#xab;" horiz-adv-x="1028" d="M117 477l28 170l365 291l47 -125l-330 -256l236 -254l-70 -125zM535 477l28 170l365 291l47 -125l-330 -256l236 -254l-70 -125z" />
<glyph unicode="&#xac;" d="M66 727l20 117h1014l-101 -565h-116l80 448h-897z" />
<glyph unicode="&#xad;" horiz-adv-x="911" d="M188 496l23 129h510l-25 -129h-508z" />
<glyph unicode="&#xae;" horiz-adv-x="1101" d="M133 999q0 192 135 330q137 137 332 137q196 0 330 -137q137 -137 137 -330q0 -192 -137 -329q-135 -138 -330 -138q-194 0 -332 138q-135 138 -135 329zM236 999q0 -154 106 -260t258 -106q150 0 256 106q109 109 109 260q0 149 -109 258t-256 109q-149 0 -258 -109 q-106 -106 -106 -258zM424 743v502h104q138 0 195 -34.5t57 -114.5q0 -48 -28 -88.5t-76 -57.5l151 -207h-118l-152 203h-35v-203h-98zM522 1020q82 -2 116 11.5t40 62.5q0 44 -31 57.5t-125 13.5v-145z" />
<glyph unicode="&#xaf;" horiz-adv-x="737" d="M53 1243l21 119h565l-21 -119h-565z" />
<glyph unicode="&#xb0;" horiz-adv-x="946" d="M184 1122q0 123 86 209q88 88 211 88q124 0 209 -88q88 -85 88 -209q0 -123 -88 -211q-86 -86 -209 -86q-122 0 -211 86q-86 89 -86 211zM294 1121.5q0 -77.5 56 -132.5q56 -54 131 -54t131 54q56 55 56 132.5t-56 131.5q-56 55 -131 55t-131 -55q-56 -54 -56 -131.5z " />
<glyph unicode="&#xb1;" d="M-27 0l21 123h997l-20 -123h-998zM90 670l21 123h438l78 438h123l-78 -438h438l-20 -123h-439l-78 -439h-122l77 439h-438z" />
<glyph unicode="&#xb2;" horiz-adv-x="626" d="M92 752l12 108q212 201 324 334q98 119 98 197q0 40 -33 64t-79 24q-52 0 -94.5 -35.5t-49.5 -89.5l-108 28q18 88 96 148q75 57 166 57q93 0 156 -54.5t63 -139.5q0 -110 -117 -254q-129 -156 -264 -279h350l-14 -108h-506z" />
<glyph unicode="&#xb3;" horiz-adv-x="628" d="M84 891l102 43q27 -84 136 -84q69 0 122.5 47.5t53.5 114.5q0 53 -39.5 82.5t-104.5 29.5q-59 0 -90 -8l12 115h23q74 0 141 37q70 40 70 116q0 42 -28.5 68.5t-75.5 26.5q-50 0 -91 -27t-53 -68l-96 52q32 71 95 111t142 40q100 0 162 -52t62 -138q0 -135 -117 -205 q45 -18 75.5 -64.5t30.5 -105.5q0 -115 -88 -197t-209 -82q-80 0 -144.5 40t-90.5 108z" />
<glyph unicode="&#xb4;" horiz-adv-x="737" d="M205 1219l268 311l100 -86l-288 -295z" />
<glyph unicode="&#xb5;" d="M-68 -512l269 1511h141l-86 -485q-25 -153 -25 -188q0 -224 218 -224q174 0 366 222l121 675h137l-178 -999h-137l30 172q-170 -197 -382 -197q-146 0 -228 101l-104 -588h-142z" />
<glyph unicode="&#xb6;" d="M129 979q0 149 86 258q159 197 453 197h157l-317 -1792h-172l168 950q-375 82 -375 387zM307 999q0 -104 58.5 -169.5t164.5 -84.5l99 551q-152 -8 -237 -83.5t-85 -213.5zM639 -358l317 1792h172l-317 -1792h-172z" />
<glyph unicode="&#xb7;" horiz-adv-x="512" d="M152 541l36 207h172l-36 -207h-172z" />
<glyph unicode="&#xb8;" horiz-adv-x="737" d="M125 -381l102 51q21 -63 103 -63q61 -2 87.5 50t3.5 103t-79 47q-57 0 -92 -53l-111 64l131 198l95 -14l-86 -139l4 -4q24 29 70.5 33.5t91 -11.5t76.5 -57t28 -96q0 -87 -68 -152q-65 -65 -162 -65q-139 0 -194 108z" />
<glyph unicode="&#xb9;" horiz-adv-x="430" d="M178 1372l23 121q85 39 176 86h76l-146 -827h-121l119 678q-119 -55 -127 -58z" />
<glyph unicode="&#xba;" horiz-adv-x="849" d="M164 1087q0 165 108 291q110 125 273 125q140 0 231 -88q92 -89 92 -227q0 -166 -110 -291q-111 -123 -271 -123q-137 0 -231 88q-92 89 -92 225zM283 1094q0 -89 58 -149t148 -60q118 0 189 86q72 90 72 209q0 89 -59.5 151t-149.5 62q-117 0 -187 -88q-71 -89 -71 -211 z" />
<glyph unicode="&#xbb;" horiz-adv-x="1028" d="M43 303l330 256l-236 254l70 125l276 -299l-28 -170l-365 -291zM461 303l330 256l-236 254l70 125l276 -299l-29 -170l-364 -291z" />
<glyph unicode="&#xbc;" horiz-adv-x="1566" d="M94 51l1264 1405l84 -74l-1264 -1405zM334 1247l16 105q87 36 168 82h62l-129 -742h-111l104 602q-55 -28 -110 -47zM807 190l8 111q307 332 397 440h123l-78 -450h111l-18 -101h-111l-33 -190h-112l32 190h-319zM954 291h191l49 284q-126 -159 -240 -284z" />
<glyph unicode="&#xbd;" horiz-adv-x="1617" d="M94 51l1264 1405l84 -74l-1264 -1405zM334 1247l16 105q87 36 168 82h62l-129 -742h-111l104 602q-55 -28 -110 -47zM891 0l12 96q119 114 260 262q121 133 121 213q0 35 -24.5 55.5t-65.5 20.5q-51 0 -88.5 -33.5t-44.5 -87.5l-109 31q15 80 90 137q77 56 158 56 q83 0 141 -51.5t58 -129.5q0 -108 -117 -243q-53 -61 -219 -224h309l-14 -102h-467z" />
<glyph unicode="&#xbe;" horiz-adv-x="1675" d="M184 825l101 41q27 -82 125 -82q64 0 109.5 40.5t45.5 101.5q0 44 -35.5 70t-95.5 26q-35 0 -80 -10l11 112h18q51 0 78 9q51 13 85 47.5t34 83.5q0 36 -25 56.5t-72 20.5q-92 0 -129 -88l-98 50q32 65 93.5 102t131.5 37q93 0 153 -50.5t60 -129.5q0 -51 -31.5 -99.5 t-82.5 -77.5q47 -17 74.5 -58.5t27.5 -96.5q0 -104 -78.5 -175t-195.5 -71q-77 0 -138.5 37.5t-85.5 103.5zM203 51l1263 1405l84 -74l-1263 -1405zM915 190l9 111q307 332 397 440h123l-78 -450h111l-19 -101h-110l-33 -190h-113l33 190h-320zM1063 291h190l50 284 q-126 -159 -240 -284z" />
<glyph unicode="&#xbf;" horiz-adv-x="1075" d="M82 -113q0 191 135 299q64 52 119 81.5t151 68.5l48 264h155l-61 -360l-58 -19q-77 -27 -120 -45q-50 -21 -105 -57q-121 -72 -121 -211q0 -100 67 -166t167 -66q107 0 170.5 70.5t75.5 194.5h141q-12 -168 -121 -283q-108 -117 -283 -117q-157 0 -258 101 q-102 102 -102 245zM559 793l37 206h172l-37 -206h-172z" />
<glyph unicode="&#xc0;" horiz-adv-x="1255" d="M-61 0l806 1434h144l293 -1434h-170l-62 317h-667l-172 -317h-172zM358 457h566l-146 770h-2zM543 1776l98 108l297 -291l-72 -77z" />
<glyph unicode="&#xc1;" horiz-adv-x="1255" d="M-61 0l806 1434h144l293 -1434h-170l-62 317h-667l-172 -317h-172zM358 457h566l-146 770h-2zM735 1614l348 246l78 -121l-362 -219z" />
<glyph unicode="&#xc2;" horiz-adv-x="1255" d="M-61 0l806 1434h144l293 -1434h-170l-62 317h-667l-172 -317h-172zM358 457h566l-146 770h-2zM559 1591l254 250h145l181 -254l-88 -67l-174 215l-240 -215z" />
<glyph unicode="&#xc3;" horiz-adv-x="1255" d="M-61 0l806 1434h144l293 -1434h-170l-62 317h-667l-172 -317h-172zM358 457h566l-146 770h-2zM512 1636q0 80 57 133.5t138 53.5q84 0 176 -80q71 -62 118 -62q33 0 57.5 22t24.5 54q0 11 -2 15l105 12q1 -9 2 -19.5t1.5 -16t0.5 -9.5q0 -80 -57 -133.5t-138 -53.5 q-86 0 -170 72l-16 14q-23 20 -35 27q-37 29 -74 29q-36 0 -59 -21.5t-23 -56.5q0 -9 3 -12l-105 -13q-4 32 -4 45z" />
<glyph unicode="&#xc4;" horiz-adv-x="1255" d="M-61 0l806 1434h144l293 -1434h-170l-62 317h-667l-172 -317h-172zM358 457h566l-146 770h-2zM487 1567l37 219h164l-37 -219h-164zM1036 1567l37 219h164l-37 -219h-164z" />
<glyph unicode="&#xc5;" horiz-adv-x="1255" d="M-61 0l806 1434h144l293 -1434h-170l-62 317h-667l-172 -317h-172zM358 457h566l-146 770h-2zM666 1670.5q0 79.5 55 135.5q57 57 137 57t135 -57q57 -55 57 -135t-57 -137q-55 -56 -135 -56t-137 56q-55 57 -55 136.5zM755 1671q0 -41 31 -72t72 -31t72 31t31 72t-31 72 t-72 31t-72 -31t-31 -72z" />
<glyph unicode="&#xc6;" horiz-adv-x="2048" d="M-82 0l1321 1434h834l-25 -140h-682l-86 -483h684l-25 -139h-684l-92 -533h682l-24 -139h-834l55 317h-632l-283 -317h-209zM535 457h532l131 743z" />
<glyph unicode="&#xc7;" horiz-adv-x="1347" d="M152 604q0 234 100 424q102 194 293 311q192 119 432 119q229 0 391 -131l-96 -115q-116 107 -309 107q-290 0 -471 -205t-181 -496q0 -206 144 -356q144 -147 362 -147q183 0 332 88l76 -113q-192 -115 -416 -115q-77 0 -141 15l-76 -127l4 -4q24 29 70.5 33.5t91 -11.5 t76.5 -57t28 -96q0 -88 -67 -152q-65 -65 -162 -65q-139 0 -195 108l103 51q21 -63 102 -63q61 -2 87 50t3 103t-78 47q-57 0 -92 -53l-110 64l127 196q-189 63 -312 226q-116 158 -116 364z" />
<glyph unicode="&#xc8;" horiz-adv-x="1163" d="M102 0l252 1434h834l-25 -140h-682l-86 -483h684l-24 -139h-684l-92 -533h682l-25 -139h-834zM530 1776l99 108l297 -291l-72 -77z" />
<glyph unicode="&#xc9;" horiz-adv-x="1163" d="M102 0l252 1434h834l-25 -140h-682l-86 -483h684l-24 -139h-684l-92 -533h682l-25 -139h-834zM651 1614l348 246l78 -121l-362 -219z" />
<glyph unicode="&#xca;" horiz-adv-x="1163" d="M102 0l252 1434h834l-25 -140h-682l-86 -483h684l-24 -139h-684l-92 -533h682l-25 -139h-834zM516 1591l254 250h145l181 -254l-88 -67l-174 215l-240 -215z" />
<glyph unicode="&#xcb;" horiz-adv-x="1163" d="M102 0l252 1434h834l-25 -140h-682l-86 -483h684l-24 -139h-684l-92 -533h682l-25 -139h-834zM489 1567l37 219h164l-37 -219h-164zM969 1567l37 219h163l-36 -219h-164z" />
<glyph unicode="&#xcc;" horiz-adv-x="536" d="M102 0l252 1434h152l-252 -1434h-152zM172 1776l98 108l297 -291l-71 -77z" />
<glyph unicode="&#xcd;" horiz-adv-x="536" d="M102 0l252 1434h152l-252 -1434h-152zM371 1614l348 246l78 -121l-363 -219z" />
<glyph unicode="&#xce;" horiz-adv-x="536" d="M102 0l252 1434h152l-252 -1434h-152zM170 1591l254 250h145l181 -254l-88 -67l-175 215l-239 -215z" />
<glyph unicode="&#xcf;" horiz-adv-x="536" d="M102 0l252 1434h152l-252 -1434h-152zM133 1567l37 219h164l-37 -219h-164zM612 1567l37 219h164l-37 -219h-164z" />
<glyph unicode="&#xd0;" horiz-adv-x="1464" d="M72 666l24 141h148l110 627h355q322 0 495.5 -159.5t173.5 -463.5q0 -267 -127 -463t-356 -287q-162 -61 -332 -61h-461l117 666h-147zM279 139h237q332 0 517.5 179t185.5 495q0 227 -139 354t-380 127h-219l-86 -487h254l-24 -141h-254z" />
<glyph unicode="&#xd1;" horiz-adv-x="1511" d="M102 0l252 1434h121l651 -1164l203 1164h152l-252 -1434h-123l-649 1161l-203 -1161h-152zM623 1636q0 81 56.5 134t137.5 53q84 0 176 -80q71 -62 119 -62q33 0 57.5 22t24.5 54q0 11 -2 15l104 12q1 -9 2 -19.5t1.5 -16t0.5 -9.5q0 -81 -56.5 -134t-137.5 -53 q-86 0 -170 72l-16 14q-23 20 -35 27q-37 29 -74 29q-36 0 -59 -21.5t-23 -56.5q0 -10 2 -12l-104 -13q-4 32 -4 45z" />
<glyph unicode="&#xd2;" horiz-adv-x="1695" d="M152 604q0 230 102 424t293 311q189 119 428 119q267 0 457 -184q190 -181 190 -445q0 -353 -233 -604q-235 -250 -592 -250q-265 0 -457 183q-188 185 -188 446zM311 618q0 -206 144 -356q144 -147 360 -147q290 0 467 204q180 204 180 498q0 204 -145 352 q-144 150 -359 150q-288 0 -469 -205q-178 -205 -178 -496zM756 1776l98 108l297 -291l-72 -77z" />
<glyph unicode="&#xd3;" horiz-adv-x="1695" d="M152 604q0 230 102 424t293 311q189 119 428 119q267 0 457 -184q190 -181 190 -445q0 -353 -233 -604q-235 -250 -592 -250q-265 0 -457 183q-188 185 -188 446zM311 618q0 -206 144 -356q144 -147 360 -147q290 0 467 204q180 204 180 498q0 204 -145 352 q-144 150 -359 150q-288 0 -469 -205q-178 -205 -178 -496zM885 1614l348 246l78 -121l-363 -219z" />
<glyph unicode="&#xd4;" horiz-adv-x="1695" d="M152 604q0 230 102 424t293 311q189 119 428 119q267 0 457 -184q190 -181 190 -445q0 -353 -233 -604q-235 -250 -592 -250q-265 0 -457 183q-188 185 -188 446zM311 618q0 -206 144 -356q144 -147 360 -147q290 0 467 204q180 204 180 498q0 204 -145 352 q-144 150 -359 150q-288 0 -469 -205q-178 -205 -178 -496zM729 1591l254 250h145l181 -254l-88 -67l-174 215l-240 -215z" />
<glyph unicode="&#xd5;" horiz-adv-x="1695" d="M152 604q0 230 102 424t293 311q189 119 428 119q267 0 457 -184q190 -181 190 -445q0 -353 -233 -604q-235 -250 -592 -250q-265 0 -457 183q-188 185 -188 446zM311 618q0 -206 144 -356q144 -147 360 -147q290 0 467 204q180 204 180 498q0 204 -145 352 q-144 150 -359 150q-288 0 -469 -205q-178 -205 -178 -496zM737 1636q0 80 57 133.5t138 53.5q84 0 176 -80q71 -62 119 -62q33 0 57.5 22t24.5 54q0 11 -2 15l104 12q1 -9 2 -19.5t1.5 -16t0.5 -9.5q0 -81 -56.5 -134t-137.5 -53q-86 0 -170 72l-17 14q-23 20 -35 27 q-37 29 -73 29t-59 -21.5t-23 -56.5q0 -10 2 -12l-105 -13q-4 32 -4 45z" />
<glyph unicode="&#xd6;" horiz-adv-x="1695" d="M152 604q0 230 102 424t293 311q189 119 428 119q267 0 457 -184q190 -181 190 -445q0 -353 -233 -604q-235 -250 -592 -250q-265 0 -457 183q-188 185 -188 446zM311 618q0 -206 144 -356q144 -147 360 -147q290 0 467 204q180 204 180 498q0 204 -145 352 q-144 150 -359 150q-288 0 -469 -205q-178 -205 -178 -496zM678 1567l37 219h164l-37 -219h-164zM1227 1567l37 219h163l-36 -219h-164z" />
<glyph unicode="&#xd7;" d="M137 354l344 289l-288 346l88 74l288 -346l346 291l74 -88l-346 -291l291 -344l-88 -74l-291 344l-344 -289z" />
<glyph unicode="&#xd8;" horiz-adv-x="1695" d="M152 604q0 230 102 424t293 311q189 119 428 119q190 0 350 -100l88 104l105 -86l-86 -100q190 -187 190 -447q0 -353 -233 -604q-235 -250 -592 -250q-202 0 -373 115l-109 -127l-104 86l111 129q-170 182 -170 426zM311 618q0 -182 113 -319l803 944q-125 76 -269 76 q-288 0 -469 -205q-178 -205 -178 -496zM522 207q130 -92 293 -92q290 0 467 204q180 204 180 498q0 194 -131 340z" />
<glyph unicode="&#xd9;" horiz-adv-x="1462" d="M188 420q0 105 23 250l135 764h152l-144 -811q-16 -94 -16 -170q0 -166 97.5 -252t264.5 -86q354 0 443 501l143 818h152l-133 -758q-63 -368 -210 -534.5t-407 -166.5q-220 0 -360 107q-140 110 -140 338zM653 1776l99 108l297 -291l-72 -77z" />
<glyph unicode="&#xda;" horiz-adv-x="1462" d="M188 420q0 105 23 250l135 764h152l-144 -811q-16 -94 -16 -170q0 -166 97.5 -252t264.5 -86q354 0 443 501l143 818h152l-133 -758q-63 -368 -210 -534.5t-407 -166.5q-220 0 -360 107q-140 110 -140 338zM801 1614l348 246l78 -121l-363 -219z" />
<glyph unicode="&#xdb;" horiz-adv-x="1462" d="M188 420q0 105 23 250l135 764h152l-144 -811q-16 -94 -16 -170q0 -166 97.5 -252t264.5 -86q354 0 443 501l143 818h152l-133 -758q-63 -368 -210 -534.5t-407 -166.5q-220 0 -360 107q-140 110 -140 338zM641 1591l254 250h145l181 -254l-88 -67l-175 215l-239 -215z " />
<glyph unicode="&#xdc;" horiz-adv-x="1462" d="M188 420q0 105 23 250l135 764h152l-144 -811q-16 -94 -16 -170q0 -166 97.5 -252t264.5 -86q354 0 443 501l143 818h152l-133 -758q-63 -368 -210 -534.5t-407 -166.5q-220 0 -360 107q-140 110 -140 338zM555 1567l37 219h164l-37 -219h-164zM1104 1567l37 219h164 l-37 -219h-164z" />
<glyph unicode="&#xdd;" horiz-adv-x="1095" d="M170 1434h168l235 -664h5l471 664h172l-596 -816l-111 -618h-149l110 633zM584 1614l348 246l78 -121l-363 -219z" />
<glyph unicode="&#xde;" horiz-adv-x="1202" d="M102 0l252 1434h152l-51 -287h196q492 0 492 -350q0 -257 -170 -377q-170 -117 -438 -117h-228l-53 -303h-152zM332 442h198q120 0 218 25q103 28 169 104t66 189q0 138 -87 193t-275 55h-191z" />
<glyph unicode="&#xdf;" horiz-adv-x="1300" d="M92 0l203 1141q29 171 164 297q135 123 329 123q155 0 263 -99q108 -94 108 -248q0 -117 -68.5 -215t-185.5 -145q144 -42 215.5 -139t71.5 -232q0 -218 -150 -362q-147 -144 -372 -144q-109 0 -217 48l61 116q91 -39 180 -39q162 0 256 101q99 102 99 248q0 153 -93 239 t-260 86h-86l13 127h45q129 0 241 80q113 79 113 211q0 108 -72.5 174t-183.5 66q-138 0 -225.5 -88t-114.5 -240l-197 -1106h-137z" />
<glyph unicode="&#xe0;" horiz-adv-x="1075" d="M86 268q0 65 27 121.5t73 96.5t105 68.5t123.5 42t128.5 11.5q130 0 254 -39l12 66q8 36 8 74q0 188 -246 188q-147 0 -317 -78l-41 113q186 92 383 92q356 0 356 -311q0 -37 -6 -80l-112 -633h-138l15 84q-121 -109 -289 -109q-154 0 -245 74.5t-91 218.5zM225 276 q0 -86 55 -134t148 -48q160 0 305 121l45 244q-131 35 -237 35q-115 0 -217 -54q-99 -52 -99 -164zM457 1479l114 73l203 -340l-96 -61z" />
<glyph unicode="&#xe1;" horiz-adv-x="1075" d="M86 268q0 65 27 121.5t73 96.5t105 68.5t123.5 42t128.5 11.5q130 0 254 -39l12 66q8 36 8 74q0 188 -246 188q-147 0 -317 -78l-41 113q186 92 383 92q356 0 356 -311q0 -37 -6 -80l-112 -633h-138l15 84q-121 -109 -289 -109q-154 0 -245 74.5t-91 218.5zM225 276 q0 -86 55 -134t148 -48q160 0 305 121l45 244q-131 35 -237 35q-115 0 -217 -54q-99 -52 -99 -164zM557 1219l268 311l101 -86l-289 -295z" />
<glyph unicode="&#xe2;" horiz-adv-x="1075" d="M86 268q0 65 27 121.5t73 96.5t105 68.5t123.5 42t128.5 11.5q130 0 254 -39l12 66q8 36 8 74q0 188 -246 188q-147 0 -317 -78l-41 113q186 92 383 92q356 0 356 -311q0 -37 -6 -80l-112 -633h-138l15 84q-121 -109 -289 -109q-154 0 -245 74.5t-91 218.5zM225 276 q0 -86 55 -134t148 -48q160 0 305 121l45 244q-131 35 -237 35q-115 0 -217 -54q-99 -52 -99 -164zM344 1208l240 287h129l161 -293l-88 -53l-143 231l-219 -235z" />
<glyph unicode="&#xe3;" horiz-adv-x="1075" d="M86 268q0 65 27 121.5t73 96.5t105 68.5t123.5 42t128.5 11.5q130 0 254 -39l12 66q8 36 8 74q0 188 -246 188q-147 0 -317 -78l-41 113q186 92 383 92q356 0 356 -311q0 -37 -6 -80l-112 -633h-138l15 84q-121 -109 -289 -109q-154 0 -245 74.5t-91 218.5zM225 276 q0 -86 55 -134t148 -48q160 0 305 121l45 244q-131 35 -237 35q-115 0 -217 -54q-99 -52 -99 -164zM299 1221v20q0 86 56 143.5t147 57.5q73 0 176 -80q77 -62 119 -62q32 0 53.5 27.5t21.5 63.5l113 14v-16q0 -88 -55.5 -146.5t-147.5 -58.5q-76 0 -164 67q-22 22 -55 41 q-39 31 -76 31q-34 0 -54.5 -25t-20.5 -63z" />
<glyph unicode="&#xe4;" horiz-adv-x="1075" d="M86 268q0 65 27 121.5t73 96.5t105 68.5t123.5 42t128.5 11.5q130 0 254 -39l12 66q8 36 8 74q0 188 -246 188q-147 0 -317 -78l-41 113q186 92 383 92q356 0 356 -311q0 -37 -6 -80l-112 -633h-138l15 84q-121 -109 -289 -109q-154 0 -245 74.5t-91 218.5zM225 276 q0 -86 55 -134t148 -48q160 0 305 121l45 244q-131 35 -237 35q-115 0 -217 -54q-99 -52 -99 -164zM371 1223l32 192h144l-33 -192h-143zM752 1223l32 192h144l-33 -192h-143z" />
<glyph unicode="&#xe5;" horiz-adv-x="1075" d="M86 268q0 65 27 121.5t73 96.5t105 68.5t123.5 42t128.5 11.5q130 0 254 -39l12 66q8 36 8 74q0 188 -246 188q-147 0 -317 -78l-41 113q186 92 383 92q356 0 356 -311q0 -37 -6 -80l-112 -633h-138l15 84q-121 -109 -289 -109q-154 0 -245 74.5t-91 218.5zM225 276 q0 -86 55 -134t148 -48q160 0 305 121l45 244q-131 35 -237 35q-115 0 -217 -54q-99 -52 -99 -164zM458 1324.5q0 79.5 56 135.5q57 57 137 57t135 -57q57 -56 57 -135.5t-57 -136.5q-56 -56 -135.5 -56t-136.5 56q-56 57 -56 136.5zM549 1325q0 -41 31 -72t71.5 -31 t71.5 31t31 72t-31 72t-71.5 31t-71.5 -31t-31 -72z" />
<glyph unicode="&#xe6;" horiz-adv-x="1816" d="M86 268q0 65 27 121.5t73 96.5t105 68.5t123.5 42t128.5 11.5q130 0 254 -39l14 66q8 36 8 74q0 188 -246 188q-146 0 -319 -78l-41 113q186 92 383 92q272 0 336 -180q158 180 387 180q192 0 301 -110t109 -302q0 -92 -21 -147h-788v-33q0 -152 88.5 -245t230.5 -93 q198 0 317 162l82 -80q-160 -201 -421 -201q-219 0 -345 164q-206 -164 -426 -164q-167 0 -263.5 72.5t-96.5 220.5zM225 276q0 -87 59 -134.5t169 -47.5q171 0 360 148q-35 87 -35 184v33q-131 35 -237 35q-115 0 -217 -54q-99 -52 -99 -164zM940 584h655q2 6 2 28 q0 127 -77 210t-207 83q-132 0 -233 -89t-140 -232z" />
<glyph unicode="&#xe7;" horiz-adv-x="948" d="M88 426q0 240 156 418q155 180 387 180q179 0 303 -100l-84 -113q-89 86 -221 86q-177 0 -287 -137q-111 -138 -111 -328q0 -137 93 -233q94 -97 231 -97q116 0 205 62l61 -111q-125 -78 -268 -78q-35 0 -82 7l-74 -119l4 -4q24 29 70.5 33.5t91.5 -11.5t77 -57t28 -96 q0 -87 -68 -152q-65 -65 -162 -65q-138 0 -194 108l102 51q21 -63 103 -63q61 -2 87.5 50t3.5 103t-79 47q-57 0 -92 -53l-111 64l123 186q-135 48 -214 159.5t-79 262.5z" />
<glyph unicode="&#xe8;" d="M88 426q0 242 156 420t385 178q192 0 300.5 -110t108.5 -302q0 -94 -20 -147h-789v-33q0 -151 89 -244.5t231 -93.5q198 0 317 162l82 -80q-160 -201 -422 -201q-186 0 -313 127q-125 128 -125 324zM250 584h655q2 6 2 28q0 127 -77 210t-207 83q-132 0 -233 -89 t-140 -232zM455 1479l114 73l203 -340l-96 -61z" />
<glyph unicode="&#xe9;" d="M88 426q0 242 156 420t385 178q192 0 300.5 -110t108.5 -302q0 -94 -20 -147h-789v-33q0 -151 89 -244.5t231 -93.5q198 0 317 162l82 -80q-160 -201 -422 -201q-186 0 -313 127q-125 128 -125 324zM250 584h655q2 6 2 28q0 127 -77 210t-207 83q-132 0 -233 -89 t-140 -232zM588 1219l268 311l100 -86l-288 -295z" />
<glyph unicode="&#xea;" d="M88 426q0 242 156 420t385 178q192 0 300.5 -110t108.5 -302q0 -94 -20 -147h-789v-33q0 -151 89 -244.5t231 -93.5q198 0 317 162l82 -80q-160 -201 -422 -201q-186 0 -313 127q-125 128 -125 324zM250 584h655q2 6 2 28q0 127 -77 210t-207 83q-132 0 -233 -89 t-140 -232zM422 1208l240 287h129l161 -293l-88 -53l-143 231l-219 -235z" />
<glyph unicode="&#xeb;" d="M88 426q0 242 156 420t385 178q192 0 300.5 -110t108.5 -302q0 -94 -20 -147h-789v-33q0 -151 89 -244.5t231 -93.5q198 0 317 162l82 -80q-160 -201 -422 -201q-186 0 -313 127q-125 128 -125 324zM250 584h655q2 6 2 28q0 127 -77 210t-207 83q-132 0 -233 -89 t-140 -232zM434 1223l33 192h143l-32 -192h-144zM815 1223l33 192h143l-33 -192h-143z" />
<glyph unicode="&#xec;" horiz-adv-x="516" d="M100 0l179 999h137l-178 -999h-138zM158 1479l114 73l203 -340l-96 -61z" />
<glyph unicode="&#xed;" horiz-adv-x="516" d="M100 0l179 999h137l-178 -999h-138zM297 1219l268 311l101 -86l-289 -295z" />
<glyph unicode="&#xee;" horiz-adv-x="516" d="M100 0l179 999h137l-178 -999h-138zM123 1208l239 287h130l161 -293l-88 -53l-143 231l-219 -235z" />
<glyph unicode="&#xef;" horiz-adv-x="516" d="M100 0l179 999h137l-178 -999h-138zM125 1223l33 192h143l-33 -192h-143zM506 1223l33 192h143l-33 -192h-143z" />
<glyph unicode="&#xf0;" horiz-adv-x="1155" d="M88 422q0 208 150 364q151 160 366 160q146 0 268 -90q-84 221 -331 391l-146 -217l-100 62l147 219q-70 40 -172 90l56 123q112 -51 190 -101l133 199l101 -61l-134 -201q449 -314 449 -795q0 -232 -152 -413q-151 -177 -397 -177q-178 0 -305 127q-123 126 -123 320z M231 418q0 -125 84 -221q83 -95 222 -95q129 0 217 76q168 137 168 404q0 45 -7 106q-125 131 -290 131q-169 0 -283 -117q-111 -114 -111 -284z" />
<glyph unicode="&#xf1;" horiz-adv-x="1228" d="M100 0l179 999h137l-31 -172q167 197 383 197q140 0 223.5 -89.5t83.5 -242.5q0 -87 -14 -170l-92 -522h-138l87 485q24 147 24 189q0 223 -217 223q-176 0 -367 -221l-120 -676h-138zM440 1221v20q0 86 56 143.5t147 57.5q73 0 176 -80q77 -62 119 -62q32 0 54 27.5 t22 63.5l112 14v-16q0 -88 -55 -146.5t-147 -58.5q-76 0 -164 67q-22 22 -55 41q-39 31 -76 31q-34 0 -55 -25t-21 -63z" />
<glyph unicode="&#xf2;" horiz-adv-x="1183" d="M88 426q0 240 156 418q155 180 387 180q199 0 332 -127t133 -324q0 -235 -158 -419q-156 -179 -385 -179q-199 0 -332 127t-133 324zM231 432q0 -137 93 -233q94 -97 231 -97q176 0 287 138q110 137 110 327q0 139 -92 234q-93 96 -231 96q-177 0 -287 -137 q-111 -138 -111 -328zM469 1479l115 73l202 -340l-96 -61z" />
<glyph unicode="&#xf3;" horiz-adv-x="1183" d="M88 426q0 240 156 418q155 180 387 180q199 0 332 -127t133 -324q0 -235 -158 -419q-156 -179 -385 -179q-199 0 -332 127t-133 324zM231 432q0 -137 93 -233q94 -97 231 -97q176 0 287 138q110 137 110 327q0 139 -92 234q-93 96 -231 96q-177 0 -287 -137 q-111 -138 -111 -328zM651 1219l269 311l100 -86l-289 -295z" />
<glyph unicode="&#xf4;" horiz-adv-x="1183" d="M88 426q0 240 156 418q155 180 387 180q199 0 332 -127t133 -324q0 -235 -158 -419q-156 -179 -385 -179q-199 0 -332 127t-133 324zM231 432q0 -137 93 -233q94 -97 231 -97q176 0 287 138q110 137 110 327q0 139 -92 234q-93 96 -231 96q-177 0 -287 -137 q-111 -138 -111 -328zM442 1208l240 287h129l162 -293l-88 -53l-144 231l-219 -235z" />
<glyph unicode="&#xf5;" horiz-adv-x="1183" d="M88 426q0 240 156 418q155 180 387 180q199 0 332 -127t133 -324q0 -235 -158 -419q-156 -179 -385 -179q-199 0 -332 127t-133 324zM231 432q0 -137 93 -233q94 -97 231 -97q176 0 287 138q110 137 110 327q0 139 -92 234q-93 96 -231 96q-177 0 -287 -137 q-111 -138 -111 -328zM403 1221v20q0 86 56 143.5t147 57.5q73 0 176 -80q77 -62 119 -62q32 0 54 27.5t22 63.5l113 14v-16q0 -88 -55.5 -146.5t-147.5 -58.5q-76 0 -164 67q-22 22 -55 41q-39 31 -76 31q-34 0 -55 -25t-21 -63z" />
<glyph unicode="&#xf6;" horiz-adv-x="1183" d="M88 426q0 240 156 418q155 180 387 180q199 0 332 -127t133 -324q0 -235 -158 -419q-156 -179 -385 -179q-199 0 -332 127t-133 324zM231 432q0 -137 93 -233q94 -97 231 -97q176 0 287 138q110 137 110 327q0 139 -92 234q-93 96 -231 96q-177 0 -287 -137 q-111 -138 -111 -328zM459 1223l33 192h143l-33 -192h-143zM840 1223l32 192h144l-33 -192h-143z" />
<glyph unicode="&#xf7;" d="M66 438l20 123h999l-20 -123h-999zM401 0l35 207h170l-35 -207h-170zM541 793l34 206h170l-34 -206h-170z" />
<glyph unicode="&#xf8;" horiz-adv-x="1183" d="M84 37l94 110q-90 122 -90 279q0 240 156 418q155 180 387 180q131 0 241 -61l97 112l104 -80l-96 -112q119 -125 119 -310q0 -235 -158 -419q-156 -179 -385 -179q-163 0 -279 82l-86 -100zM231 432q0 -96 45 -170l508 596q-68 39 -155 39q-177 0 -287 -137 q-111 -138 -111 -328zM362 162q88 -60 193 -60q176 0 287 138q110 137 110 327q0 118 -69 205z" />
<glyph unicode="&#xf9;" horiz-adv-x="1228" d="M154 307q0 87 14 170l92 522h137l-86 -485q-24 -147 -24 -188q0 -224 217 -224q174 0 366 222l121 675h137l-178 -999h-137l31 172q-170 -197 -383 -197q-140 0 -223.5 89.5t-83.5 242.5zM500 1479l114 73l203 -340l-96 -61z" />
<glyph unicode="&#xfa;" horiz-adv-x="1228" d="M154 307q0 87 14 170l92 522h137l-86 -485q-24 -147 -24 -188q0 -224 217 -224q174 0 366 222l121 675h137l-178 -999h-137l31 172q-170 -197 -383 -197q-140 0 -223.5 89.5t-83.5 242.5zM653 1219l269 311l100 -86l-289 -295z" />
<glyph unicode="&#xfb;" horiz-adv-x="1228" d="M154 307q0 87 14 170l92 522h137l-86 -485q-24 -147 -24 -188q0 -224 217 -224q174 0 366 222l121 675h137l-178 -999h-137l31 172q-170 -197 -383 -197q-140 0 -223.5 89.5t-83.5 242.5zM473 1208l240 287h129l162 -293l-89 -53l-143 231l-219 -235z" />
<glyph unicode="&#xfc;" horiz-adv-x="1228" d="M154 307q0 87 14 170l92 522h137l-86 -485q-24 -147 -24 -188q0 -224 217 -224q174 0 366 222l121 675h137l-178 -999h-137l31 172q-170 -197 -383 -197q-140 0 -223.5 89.5t-83.5 242.5zM471 1223l33 192h143l-33 -192h-143zM852 1223l33 192h143l-33 -192h-143z" />
<glyph unicode="&#xfd;" horiz-adv-x="958" d="M86 -406l199 363l-170 1042h149l133 -835l447 835h155l-802 -1466zM506 1219l268 311l100 -86l-288 -295z" />
<glyph unicode="&#xfe;" horiz-adv-x="1259" d="M2 -537l367 2073h137l-119 -662q59 70 154 110t196 40q191 0 312 -133q122 -131 122 -318q0 -239 -165 -419q-167 -179 -402 -179q-101 0 -193 48t-151 133l-121 -693h-137zM289 311q47 -98 136.5 -153.5t195.5 -55.5q171 0 288 138q119 137 119 313q0 152 -86.5 248 t-232.5 96q-201 0 -351 -184z" />
<glyph unicode="&#xff;" horiz-adv-x="958" d="M86 -406l199 363l-170 1042h149l133 -835l447 835h155l-802 -1466zM336 1223l33 192h143l-33 -192h-143zM717 1223l33 192h143l-33 -192h-143z" />
<glyph unicode="&#x152;" horiz-adv-x="2170" d="M152 604q0 230 102 424t293 311q189 119 428 119q228 0 366 -135l21 111h833l-24 -140h-682l-86 -485h684l-25 -139h-684l-92 -531h682l-24 -139h-834l10 59q-125 -84 -323 -84q-265 0 -457 183q-188 185 -188 446zM311 618q0 -206 144 -356q144 -147 360 -147 q190 0 332 92l168 964q-139 148 -357 148q-288 0 -469 -205q-178 -205 -178 -496z" />
<glyph unicode="&#x153;" horiz-adv-x="1964" d="M88 426q0 240 156 418q155 180 387 180q143 0 252 -69t153 -187q67 120 179.5 188t250.5 68q192 0 301 -110t109 -302q0 -92 -21 -147h-788v-33q0 -152 88.5 -245t230.5 -93q199 0 318 162l82 -80q-160 -201 -422 -201q-135 0 -237 67.5t-146 186.5q-66 -119 -179 -186.5 t-249 -67.5q-199 0 -332 127t-133 324zM231 432q0 -137 93 -233q94 -97 231 -97q176 0 287 138q110 137 110 327q0 139 -92 234q-93 96 -231 96q-177 0 -287 -137q-111 -138 -111 -328zM1087 584h656q2 6 2 28q0 126 -77.5 209.5t-207.5 83.5q-132 0 -233 -89t-140 -232z " />
<glyph unicode="&#x178;" horiz-adv-x="1095" d="M170 1434h168l235 -664h5l471 664h172l-596 -816l-111 -618h-149l110 633zM414 1567l37 219h163l-36 -219h-164zM891 1567l37 219h164l-37 -219h-164z" />
<glyph unicode="&#x2c6;" horiz-adv-x="737" d="M63 1208l240 287h129l162 -293l-88 -53l-144 231l-219 -235z" />
<glyph unicode="&#x2dc;" horiz-adv-x="737" d="M10 1221v20q0 86 56 143.5t147 57.5q73 0 176 -80q77 -62 119 -62q32 0 54 27.5t22 63.5l112 14v-16q0 -88 -55 -146.5t-147 -58.5q-76 0 -164 67q-21 21 -56 41q-39 31 -75 31q-34 0 -55 -25t-21 -63z" />
<glyph unicode="&#x2000;" horiz-adv-x="942" />
<glyph unicode="&#x2001;" horiz-adv-x="1884" />
<glyph unicode="&#x2002;" horiz-adv-x="942" />
<glyph unicode="&#x2003;" horiz-adv-x="1884" />
<glyph unicode="&#x2004;" horiz-adv-x="628" />
<glyph unicode="&#x2005;" horiz-adv-x="471" />
<glyph unicode="&#x2006;" horiz-adv-x="314" />
<glyph unicode="&#x2007;" horiz-adv-x="314" />
<glyph unicode="&#x2008;" horiz-adv-x="235" />
<glyph unicode="&#x2009;" horiz-adv-x="376" />
<glyph unicode="&#x200a;" horiz-adv-x="104" />
<glyph unicode="&#x2010;" horiz-adv-x="911" d="M188 496l23 129h510l-25 -129h-508z" />
<glyph unicode="&#x2011;" horiz-adv-x="911" d="M188 496l23 129h510l-25 -129h-508z" />
<glyph unicode="&#x2012;" horiz-adv-x="911" d="M188 496l23 129h510l-25 -129h-508z" />
<glyph unicode="&#x2013;" horiz-adv-x="1228" d="M98 555l25 133h1022l-25 -133h-1022z" />
<glyph unicode="&#x2014;" horiz-adv-x="1843" d="M98 555l25 133h1638l-24 -133h-1639z" />
<glyph unicode="&#x2018;" horiz-adv-x="481" d="M180 948l201 486h125l-166 -486h-160z" />
<glyph unicode="&#x2019;" horiz-adv-x="481" d="M160 948l166 486h159l-200 -486h-125z" />
<glyph unicode="&#x201a;" horiz-adv-x="481" d="M-4 -283l166 486h160l-201 -486h-125z" />
<glyph unicode="&#x201c;" horiz-adv-x="862" d="M180 948l201 486h125l-166 -486h-160zM561 948l201 486h125l-166 -486h-160z" />
<glyph unicode="&#x201d;" horiz-adv-x="862" d="M160 948l166 486h159l-200 -486h-125zM541 948l166 486h159l-200 -486h-125z" />
<glyph unicode="&#x201e;" horiz-adv-x="862" d="M-4 -283l166 486h160l-201 -486h-125zM377 -283l166 486h159l-200 -486h-125z" />
<glyph unicode="&#x2022;" horiz-adv-x="612" d="M72 592q0 99 67 166q69 69 168 69q100 0 166 -69q68 -68 68 -166q0 -97 -68 -168q-68 -68 -166 -68q-97 0 -168 68q-67 70 -67 168z" />
<glyph unicode="&#x2026;" horiz-adv-x="1536" d="M82 0l37 207h172l-37 -207h-172zM594 0l37 207h172l-37 -207h-172zM1106 0l37 207h172l-37 -207h-172z" />
<glyph unicode="&#x202f;" horiz-adv-x="376" />
<glyph unicode="&#x2039;" horiz-adv-x="610" d="M117 477l28 170l365 291l47 -125l-330 -256l236 -254l-70 -125z" />
<glyph unicode="&#x203a;" horiz-adv-x="610" d="M43 303l330 256l-236 254l70 125l276 -299l-28 -170l-365 -291z" />
<glyph unicode="&#x205f;" horiz-adv-x="471" />
<glyph unicode="&#x20ac;" horiz-adv-x="1331" d="M27 459l22 131h168q0 84 21 178h-156l22 131h175q88 216 278 350q191 135 442 135q220 0 371 -124l-90 -119q-114 102 -295 102q-188 0 -332 -91.5t-219 -252.5h606l-22 -131h-631q-20 -79 -20 -178h618l-22 -131h-578q44 -153 168 -246q128 -96 295 -96q165 0 315 84 l72 -105q-204 -121 -395 -121q-228 0 -402 136q-171 139 -211 348h-200z" />
<glyph unicode="&#x2122;" horiz-adv-x="1886" d="M211 1319l18 115h529l-19 -115h-202l-123 -696h-123l123 696h-203zM791 623l143 811h182l129 -619l359 619h190l-143 -811h-121l117 659l-387 -659h-86l-146 657l-117 -657h-120z" />
<glyph unicode="&#x25fc;" horiz-adv-x="1003" d="M0 0v1004h1004v-1004h-1004z" />
</font>
</defs>
</svg>
