# WaveFront *.obj file (generated by CINEMA 4D)

mtllib ./LETTRE.mtl

v -29.99999999999999 17.83057842009404 -2.20667685482170
v -29.99999999999999 17.83057842009404 -4.86254196855458
v 0.00000000000000 -2.46425711816632 -4.86254196855458
v 29.99999999999999 17.83057842009404 -4.86254196855458
v 0.00000000000000 -2.46425711816632 -2.20667685482170
v 29.99999999999999 17.83057842009404 -2.20667685482170
v -29.99999999999999 -17.83057842009404 -2.82582430122310
v -29.99999999999999 17.83057842009404 -2.82582430122310
v 29.99999999999999 -17.83057842009404 -2.82582430122310
v 29.99999999999999 17.83057842009404 -2.82582430122310
v 29.99999999999999 -17.83057842009404 -0.16995918749023
v 29.99999999999999 17.83057842009404 -0.16995918749023
v -29.99999999999999 -17.83057842009404 -0.16995918749023
v -29.99999999999999 17.83057842009404 -0.16995918749023
# 14 vertices

vn 0.00000000000000 0.00000000000000 -1.00000000000000
vn 0.00000000000000 0.00000000000000 0.00000000000000
vn 0.00000000000000 -1.00000000000000 0.00000000000000
vn 0.56032293173584 -0.82827423729762 0.00000000000000
vn 0.00000000000000 0.00000000000000 1.00000000000000
vn -0.56032293173584 -0.82827423729762 0.00000000000000
vn 0.00000000000000 1.00000000000000 0.00000000000000
vn 1.00000000000000 0.00000000000000 0.00000000000000
vn -1.00000000000000 0.00000000000000 0.00000000000000
# 9 normals

vt 0.00000000000000 -0.00000000000000 0.00000000000000
vt 1.00000000000000 -0.00000000000000 0.00000000000000
vt 0.50000000000000 -1.00000000000000 0.00000000000000
vt 0.00000000000000 -1.00000000000000 0.00000000000000
vt 1.00000000000000 -1.00000000000000 0.00000000000000
# 5 texture coordinates

o enveloppe.1
usemtl default
f 2/1/1 4/2/1 3/3/1
f 3/4/3 4/1/4 6/2/4 5/5/3
f 6/1/5 1/2/5 5/3/5
f 5/4/3 1/1/6 2/2/6 3/5/3
f 2/4/7 1/1/7 6/2/7 4/5/7
f 7/4/1 8/1/1 10/2/1 9/5/1
f 9/4/8 10/1/8 12/2/8 11/5/8
f 11/4/5 12/1/5 14/2/5 13/5/5
f 13/4/9 14/1/9 8/2/9 7/5/9
f 8/4/7 14/1/7 12/2/7 10/5/7
f 13/4/3 7/1/3 9/2/3 11/5/3

