# WaveFront *.obj file (generated by CINEMA 4D)

v 0 15.45085048675537 25
v 0 -15.45085048675537 25
v 25 0 15.45085048675537
v 25 0 -15.45085048675537
v 0 15.45085048675537 -25
v 0 -15.45085048675537 -25
v -25 0 -15.45085048675537
v -25 0 15.45085048675537
v 15.45085048675537 25 0
v -15.45085048675537 25 0
v -15.45085048675537 -25 0
v 15.45085048675537 -25 0
# 12 vertices

vn 0 0.93417352437973 0.35681909322739
vn 0.57735025882721 0.57735025882721 0.57735025882721
vn 0.93417352437973 0.35681909322739 0
vn 0.57735025882721 0.57735025882721 -0.57735025882721
vn 0 0.93417352437973 -0.35681909322739
vn -0.57735025882721 0.57735025882721 -0.57735025882721
vn -0.93417352437973 0.35681909322739 0
vn -0.57735025882721 0.57735025882721 0.57735025882721
vn 0 -0.93417352437973 0.35681909322739
vn 0.57735025882721 -0.57735025882721 0.57735025882721
vn 0.93417352437973 -0.35681909322739 0
vn 0.57735025882721 -0.57735025882721 -0.57735025882721
vn 0 -0.93417352437973 -0.35681909322739
vn -0.57735025882721 -0.57735025882721 -0.57735025882721
vn -0.93417352437973 -0.35681909322739 0
vn -0.57735025882721 -0.57735025882721 0.57735025882721
vn -0.35681909322739 0 0.93417352437973
vn 0.35681909322739 0 0.93417352437973
vn 0.35681909322739 0 -0.93417352437973
vn -0.35681909322739 0 -0.93417352437973
# 20 normals

vt 0.19098301231861 1 0
vt 0.80901700258255 1 0
vt 0.5 0.80901700258255 0
vt 1 0.5 0
vt 0 0.5 0
vt 0.80901700258255 0 0
vt 0.19098301231861 0 0
vt 0.5 0.19098305702209 0
# 8 texture coordinates

o Platonic
usemtl default
f 1/3/1 9/2/1 10/1/1
f 1/3/2 3/4/2 9/2/2
f 3/4/3 4/4/3 9/2/3
f 4/4/4 5/3/4 9/2/4
f 5/3/5 10/1/5 9/2/5
f 7/5/6 10/1/6 5/3/6
f 8/5/7 10/1/7 7/5/7
f 8/5/8 1/3/8 10/1/8
f 2/8/9 11/7/9 12/6/9
f 2/8/10 12/6/10 3/4/10
f 12/6/11 4/4/11 3/4/11
f 12/6/12 6/8/12 4/4/12
f 12/6/13 11/7/13 6/8/13
f 11/7/14 7/5/14 6/8/14
f 11/7/15 8/5/15 7/5/15
f 11/7/16 2/8/16 8/5/16
f 1/3/17 8/5/17 2/8/17
f 1/3/18 2/8/18 3/4/18
f 4/4/19 6/8/19 5/3/19
f 6/8/20 7/5/20 5/3/20

