# WaveFront *.obj file (generated by CINEMA 4D)

mtllib ./forme1-start-test2.mtl

v -0.11558340489864 5.8713231086731 9.49929714202881
v -0.11558340489864 -5.8713231086731 9.49929714202881
v 9.4278621673584 0 5.98647212982178
v 9.5707311630249 0 -5.75530529022217
v 0.11558340489864 5.8713231086731 -9.49929714202881
v 0.11558340489864 -5.8713231086731 -9.49929714202881
v -9.4278621673584 0 -5.98647212982178
v -9.5707311630249 0 5.75530529022217
v 5.87088871002197 9.5 0.07143447548151
v -5.87088871002197 9.5 -0.07143447548151
v -5.87088871002197 -9.5 -0.07143447548151
v 5.87088871002197 -9.5 0.07143447548151
# 12 vertices

vn -0.00434133829549 0.93417233228683 0.35679569840431
vn 0 0 0
vn 0.57028311491013 0.57735025882721 0.58433198928833
vn 0.93410325050354 0.35682207345963 0.01136576291174
vn 0.58433192968369 0.57735031843185 -0.57028305530548
vn 0.00434133829549 0.93417233228683 -0.35679569840431
vn -0.57028311491013 0.57735025882721 -0.58433198928833
vn -0.93410325050354 0.3568220436573 -0.01136577501893
vn -0.58433192968369 0.57735031843185 0.57028305530548
vn -0.00434133782983 -0.93417239189148 0.35679566860199
vn 0.57028311491013 -0.57735025882721 0.58433198928833
vn 0.93410325050354 -0.3568220436573 0.01136577501893
vn 0.58433198928833 -0.57735025882721 -0.57028317451477
vn 0.00434130337089 -0.93417239189148 -0.35679566860199
vn -0.57028311491013 -0.57735025882721 -0.58433198928833
vn -0.93410325050354 -0.3568220436573 -0.01136577501893
vn -0.58433198928833 -0.57735025882721 0.57028317451477
vn -0.36816143989563 0 0.92976188659668
vn 0.34542989730835 0 0.93844455480576
vn 0.36816143989563 0 -0.92976188659668
vn -0.34542989730835 0 -0.93844455480576
# 21 normals

vt 1.74691450595856 -0.0230655670166 0
vt 1.25625503063202 -0.0230655670166 0
vt 1.65320694446564 -0.20533275604248 0
vt 1.19834053516388 -0.50024747848511 0
vt 1.01092529296875 -0.50024747848511 0
vt 0.7439923286438 -0.02082800865173 0
vt 0.65028470754623 -0.20309543609619 0
vt 0.98932188749313 -0.49801015853882 0
vt 0.25333285331726 -0.02082800865173 0
vt 0.19541838765144 -0.49801015853882 0
vt 0.00800315290689 -0.49801015853882 0
vt 1.99224412441254 -0.50024747848511 0
vt 1.25625503063202 -0.97742962837219 0
vt 1.74691450595856 -0.97742962837219 0
vt 1.65320694446564 -0.79516243934631 0
vt 0.65028470754623 -0.79292488098145 0
vt 0.7439923286438 -0.97519207000732 0
vt 0.25333285331726 -0.97519207000732 0
# 18 texture coordinates

o forme1_start_obj
usemtl default
f 1/3/1 9/2/1 10/1/1
f 1/3/3 3/4/3 9/2/3
f 3/4/4 4/5/4 9/2/4
f 4/8/5 5/7/5 9/6/5
f 5/7/6 10/9/6 9/6/6
f 7/10/7 10/9/7 5/7/7
f 8/11/8 10/9/8 7/10/8
f 8/12/9 1/3/9 10/1/9
f 2/15/10 11/14/10 12/13/10
f 2/15/11 12/13/11 3/4/11
f 12/13/12 4/5/12 3/4/12
f 12/17/13 6/16/13 4/8/13
f 12/17/14 11/18/14 6/16/14
f 11/18/15 7/10/15 6/16/15
f 11/18/16 8/11/16 7/10/16
f 11/14/17 2/15/17 8/12/17
f 1/3/18 8/12/18 2/15/18
f 1/3/19 2/15/19 3/4/19
f 4/8/20 6/16/20 5/7/20
f 6/16/21 7/10/21 5/7/21

