# WaveFront *.obj file (generated by CINEMA 4D)

mtllib ./forme1-start-test-2.mtl

v 0.00000000000000 5.87132310867310 9.50000000000000
v 0.00000000000000 -5.87132310867310 9.50000000000000
v 9.50000000000000 0.00000000000000 5.87132310867310
v 9.50000000000000 0.00000000000000 -5.87132310867310
v 0.00000000000000 5.87132310867310 -9.50000000000000
v 0.00000000000000 -5.87132310867310 -9.50000000000000
v -9.50000000000000 0.00000000000000 -5.87132310867310
v -9.50000000000000 0.00000000000000 5.87132310867310
v 5.87132310867310 9.50000000000000 0.00000000000000
v -5.87132310867310 9.50000000000000 0.00000000000000
v -5.87132310867310 -9.50000000000000 0.00000000000000
v 5.87132310867310 -9.50000000000000 0.00000000000000
# 12 vertices

vn -0.00000001500140 0.52573111961322 0.85065080372044
vn 0.52573111961322 0.85065080372044 0.00000000000000
vn -0.52573116274354 0.85065077706443 0.00000000000000
vn 0.00000000000000 0.00000000000000 0.00000000000000
vn 0.85065077706443 0.00000000000000 0.52573116274354
vn 0.85065080372044 -0.00000001500140 -0.52573111961322
vn 0.00000000000000 0.52573111961322 -0.85065080372044
vn -0.85065080372044 -0.00000001500140 -0.52573111961322
vn -0.85065080372044 -0.00000001500140 0.52573111961322
vn -0.00000001500140 -0.52573118939955 0.85065076059011
vn -0.52573116274354 -0.85065077706443 0.00000000000000
vn 0.52573111961322 -0.85065080372044 0.00000001500140
vn 0.00000000000000 -0.52573120587386 -0.85065075040843
# 13 normals

vt 0.65028470754623 -0.20309540629387 0.00000000000000
vt 0.25333282351494 -0.02082811668515 0.00000000000000
vt 0.74399232864380 -0.02082811668515 0.00000000000000
vt 0.00000000000000 -0.00000000000000 0.00000000000000
vt 0.19541837275028 -0.49801021814346 0.00000000000000
vt 0.00800315290689 -0.49801021814346 0.00000000000000
vt 0.98932188749313 -0.49801021814346 0.00000000000000
vt 0.25333285331726 -0.02082811668515 0.00000000000000
vt 0.19541838765144 -0.49801021814346 0.00000000000000
vt 0.65028470754623 -0.79292500019073 0.00000000000000
vt 0.74399232864380 -0.97519230842590 0.00000000000000
vt 0.25333282351494 -0.97519230842590 0.00000000000000
vt 0.74399232864380 -0.97519218921661 0.00000000000000
vt 0.25333285331726 -0.97519218921661 0.00000000000000
# 14 texture coordinates

o forme1_start_obj
usemtl Mat
f 1/1/1 9/2/2 10/3/3
f 1/1/1 3/5/5 9/2/2
f 3/5/5 4/6/6 9/2/2
f 4/7/6 5/1/7 9/3/2
f 5/1/7 10/8/3 9/3/2
f 7/9/8 10/8/3 5/1/7
f 8/6/9 10/8/3 7/9/8
f 8/7/9 1/1/1 10/3/3
f 2/10/10 11/11/11 12/12/12
f 2/10/10 12/12/12 3/5/5
f 12/12/12 4/6/6 3/5/5
f 12/13/12 6/10/13 4/7/6
f 12/13/12 11/14/11 6/10/13
f 11/14/11 7/9/8 6/10/13
f 11/14/11 8/6/9 7/9/8
f 11/11/11 2/10/10 8/7/9
f 1/1/1 8/7/9 2/10/10
f 1/1/1 2/10/10 3/5/5
f 4/7/6 6/10/13 5/1/7
f 6/10/13 7/9/8 5/1/7

