# WaveFront *.obj file (generated by CINEMA 4D)

mtllib ./PHOTO.mtl

v -21.18705573120991 16.92005076531239 2.47322766864107
v -21.18705573120991 19.81769873290569 2.47322766864107
v -18.72705573120992 16.92005076531239 2.47322766864107
v -18.72705573120992 19.81769873290569 2.47322766864107
v -18.91431208123215 16.92005076531239 3.41462891225919
v -18.91431208123215 19.81769873290569 3.41462891225919
v -19.44757304949101 16.92005076531239 4.21271035035997
v -19.44757304949101 19.81769873290569 4.21271035035997
v -20.24565448759179 16.92005076531239 4.74597131861883
v -20.24565448759179 19.81769873290569 4.74597131861883
v -21.18705573120991 16.92005076531239 4.93322766864106
v -21.18705573120991 19.81769873290569 4.93322766864106
v -22.12845697482803 16.92005076531239 4.74597131861883
v -22.12845697482803 19.81769873290569 4.74597131861883
v -22.92653841292882 16.92005076531239 4.21271035035997
v -22.92653841292882 19.81769873290569 4.21271035035997
v -23.45979938118768 16.92005076531239 3.41462891225919
v -23.45979938118768 19.81769873290569 3.41462891225919
v -23.64705573120991 16.92005076531239 2.47322766864107
v -23.64705573120991 19.81769873290569 2.47322766864107
v -23.45979938118768 16.92005076531239 1.53182642502295
v -23.45979938118768 19.81769873290569 1.53182642502295
v -22.92653841292882 16.92005076531239 0.73374498692216
v -22.92653841292882 19.81769873290569 0.73374498692216
v -22.12845697482803 16.92005076531239 0.20048401866330
v -22.12845697482803 19.81769873290569 0.20048401866330
v -21.18705573120991 16.92005076531239 0.01322766864107
v -21.18705573120991 19.81769873290569 0.01322766864107
v -20.24565448759179 16.92005076531239 0.20048401866330
v -20.24565448759179 19.81769873290569 0.20048401866330
v -19.44757304949101 16.92005076531239 0.73374498692216
v -19.44757304949101 19.81769873290569 0.73374498692216
v -18.91431208123215 16.92005076531239 1.53182642502294
v -18.91431208123215 19.81769873290569 1.53182642502294
v 8.81294426879009 0.00000000000000 -3.83538477859083
v 8.81294426879009 0.00000000000000 -13.49421133723516
v 17.01294426879008 0.00000000000000 -3.83538477859083
v 17.01294426879008 0.00000000000000 -13.49421133723516
v 16.38875643538264 3.13800414539373 -3.83538477859083
v 16.38875643538264 3.13800414539373 -13.49421133723516
v 14.61121987451977 5.79827560572969 -3.83538477859083
v 14.61121987451977 5.79827560572969 -13.49421133723516
v 11.95094841418382 7.57581216659255 -3.83538477859083
v 11.95094841418382 7.57581216659255 -13.49421133723516
v 8.81294426879009 8.20000000000000 -3.83538477859083
v 8.81294426879009 8.20000000000000 -13.49421133723516
v 5.67494012339635 7.57581216659255 -3.83538477859083
v 5.67494012339635 7.57581216659255 -13.49421133723516
v 3.01466866306040 5.79827560572969 -3.83538477859083
v 3.01466866306040 5.79827560572969 -13.49421133723516
v 1.23713210219754 3.13800414539373 -3.83538477859083
v 1.23713210219754 3.13800414539374 -13.49421133723516
v 0.61294426879009 0.00000000000000 -3.83538477859083
v 0.61294426879009 0.00000000000000 -13.49421133723516
v 1.23713210219754 -3.13800414539373 -3.83538477859083
v 1.23713210219754 -3.13800414539373 -13.49421133723516
v 3.01466866306040 -5.79827560572969 -3.83538477859083
v 3.01466866306040 -5.79827560572969 -13.49421133723516
v 5.67494012339635 -7.57581216659255 -3.83538477859083
v 5.67494012339635 -7.57581216659255 -13.49421133723516
v 8.81294426879009 -8.20000000000000 -3.83538477859083
v 8.81294426879009 -8.20000000000000 -13.49421133723516
v 11.95094841418382 -7.57581216659255 -3.83538477859083
v 11.95094841418382 -7.57581216659255 -13.49421133723516
v 14.61121987451977 -5.79827560572969 -3.83538477859083
v 14.61121987451977 -5.79827560572969 -13.49421133723516
v 16.38875643538263 -3.13800414539374 -3.83538477859083
v 16.38875643538263 -3.13800414539374 -13.49421133723516
v -10.37916501839226 -10.82239999999998 -7.69586916177188
v -10.37916501839226 10.82239999999998 -7.69586916177188
v 25.82646111855358 -10.82239999999998 -7.69586916177188
v 25.82646111855358 10.82239999999998 -7.69586916177188
v 25.82646111855358 -10.82239999999998 -0.93331067113847
v 25.82646111855358 10.82239999999998 -0.93331067113847
v -10.37916501839226 -10.82239999999998 -0.93331067113847
v -10.37916501839226 10.82239999999998 -0.93331067113847
v -29.77436359946205 -17.79999999999996 -2.65377924081334
v -29.77436359946205 17.79999999999996 -2.65377924081334
v 29.77436359946205 -17.79999999999996 -2.65377924081334
v 29.77436359946205 17.79999999999996 -2.65377924081334
v 29.77436359946205 -17.79999999999996 8.46884985562318
v 29.77436359946205 17.79999999999996 8.46884985562318
v -29.77436359946205 -17.79999999999996 8.46884985562318
v -29.77436359946205 17.79999999999996 8.46884985562318
# 84 vertices

vn -0.38268343706134 0.00000000000000 0.92387953056604
vn -0.70710678118655 0.00000000000000 0.70710678118655
vn 1.00000000000000 0.00000000000000 0.00000000000000
vn 0.92387953056604 0.00000000000000 0.38268343706134
vn 0.38268343706134 0.00000000000000 -0.92387953056604
vn 0.70710678118655 0.00000000000000 -0.70710678118655
vn -0.92387953056604 0.00000000000000 0.38268343706134
vn 0.70710678118655 0.00000000000000 0.70710678118655
vn -0.38268343706134 0.00000000000000 -0.92387953056604
vn 0.00000000000000 0.00000000000000 -1.00000000000000
vn -1.00000000000000 0.00000000000000 0.00000000000000
vn 0.38268343706134 0.00000000000000 0.92387953056604
vn 0.92387953056604 0.00000000000000 -0.38268343706134
vn -0.92387953056604 0.00000000000000 -0.38268343706134
vn 0.00000000000000 0.00000000000000 1.00000000000000
vn -0.70710678118655 0.00000000000000 -0.70710678118655
vn 0.00000000000000 1.00000000000000 0.00000000000000
vn 0.00000000000000 0.00000000000000 0.00000000000000
vn -0.38268358532413 0.92387946915356 0.00000000000000
vn -0.70710687059351 0.70710669177958 0.00000000000000
vn 1.00000000000000 -0.00000003038618 0.00000000000000
vn 0.92387944808013 0.38268363619987 0.00000000000000
vn 0.38268341162346 -0.92387954110275 0.00000000000000
vn 0.70710657257025 -0.70710698980279 0.00000000000000
vn -0.92387944627232 0.38268364056430 0.00000000000000
vn 0.70710672158190 0.70710684079119 0.00000000000000
vn -0.38268341162346 -0.92387954110275 0.00000000000000
vn 0.00000000000000 -1.00000000000000 0.00000000000000
vn -1.00000000000000 -0.00000002278964 0.00000000000000
vn 0.38268358532413 0.92387946915356 0.00000000000000
vn 0.92387944808013 -0.38268363619987 0.00000000000000
vn -0.92387942700670 -0.38268368707560 0.00000000000000
vn 0.00000000000000 1.00000000000000 0.00000000000000
vn -0.70710678118655 -0.70710678118655 0.00000000000000
vn 0.00000000000000 0.00000000000000 -1.00000000000000
vn 1.00000000000000 0.00000000000000 0.00000000000000
vn 0.00000000000000 0.00000000000000 1.00000000000000
vn -1.00000000000000 0.00000000000000 0.00000000000000
vn 0.00000000000000 -1.00000000000000 0.00000000000000
# 39 normals

vt 0.31250000000000 -1.00000000000000 0.00000000000000
vt 0.31250000000000 -0.00000000000000 0.00000000000000
vt 0.37500000000000 -0.00000000000000 0.00000000000000
vt 0.37500000000000 -1.00000000000000 0.00000000000000
vt 0.00000000000000 -1.00000000000000 0.00000000000000
vt 0.00000000000000 -0.00000000000000 0.00000000000000
vt 0.06250000000000 -0.00000000000000 0.00000000000000
vt 0.06250000000000 -1.00000000000000 0.00000000000000
vt 0.81250000000000 -1.00000000000000 0.00000000000000
vt 0.81250000000000 -0.00000000000000 0.00000000000000
vt 0.87500000000000 -0.00000000000000 0.00000000000000
vt 0.87500000000000 -1.00000000000000 0.00000000000000
vt 0.43750000000000 -0.00000000000000 0.00000000000000
vt 0.43750000000000 -1.00000000000000 0.00000000000000
vt 0.12500000000000 -0.00000000000000 0.00000000000000
vt 0.12500000000000 -1.00000000000000 0.00000000000000
vt 0.68750000000000 -1.00000000000000 0.00000000000000
vt 0.68750000000000 -0.00000000000000 0.00000000000000
vt 0.75000000000000 -0.00000000000000 0.00000000000000
vt 0.75000000000000 -1.00000000000000 0.00000000000000
vt 0.50000000000000 -0.00000000000000 0.00000000000000
vt 0.50000000000000 -1.00000000000000 0.00000000000000
vt 0.18750000000000 -0.00000000000000 0.00000000000000
vt 0.18750000000000 -1.00000000000000 0.00000000000000
vt 0.93750000000000 -0.00000000000000 0.00000000000000
vt 0.93750000000000 -1.00000000000000 0.00000000000000
vt 0.56250000000000 -0.00000000000000 0.00000000000000
vt 0.56250000000000 -1.00000000000000 0.00000000000000
vt 0.25000000000000 -0.00000000000000 0.00000000000000
vt 0.25000000000000 -1.00000000000000 0.00000000000000
vt 0.62500000000000 -0.00000000000000 0.00000000000000
vt 0.62500000000000 -1.00000000000000 0.00000000000000
vt 1.00000000000000 -0.00000000000000 0.00000000000000
vt 1.00000000000000 -1.00000000000000 0.00000000000000
vt 0.96193975210190 -0.30865824222565 0.00000000000000
vt 0.69134169816971 -0.03806023299694 0.00000000000000
vt 0.30865827202797 -0.03806023299694 0.00000000000000
vt 0.03806023299694 -0.30865824222565 0.00000000000000
vt 0.85355341434479 -0.14644661545753 0.00000000000000
vt 0.14644661545753 -0.14644661545753 0.00000000000000
vt 0.14644661545753 -0.85355341434479 0.00000000000000
vt 0.00000000000000 -0.50000000000000 0.00000000000000
vt 0.03806023299694 -0.69134163856506 0.00000000000000
vt 0.96193975210190 -0.69134163856506 0.00000000000000
vt 0.30865827202797 -0.96193969249725 0.00000000000000
vt 0.85355341434479 -0.85355341434479 0.00000000000000
vt 0.69134169816971 -0.96193969249725 0.00000000000000
vt 1.00000000000000 -0.50000000000000 0.00000000000000
# 48 texture coordinates

o Photo
usemtl default
f 13/1/1 14/2/1 16/3/2 15/4/2
f 3/5/3 4/6/3 6/7/4 5/8/4
f 29/9/5 30/10/5 32/11/6 31/12/6
f 15/4/2 16/3/2 18/13/7 17/14/7
f 5/8/4 6/7/4 8/15/8 7/16/8
f 25/17/9 26/18/9 28/19/10 27/20/10
f 17/14/7 18/13/7 20/21/11 19/22/11
f 7/16/8 8/15/8 10/23/12 9/24/12
f 31/12/6 32/11/6 34/25/13 33/26/13
f 19/22/11 20/21/11 22/27/14 21/28/14
f 9/24/12 10/23/12 12/29/15 11/30/15
f 27/20/10 28/19/10 30/10/5 29/9/5
f 21/28/14 22/27/14 24/31/16 23/32/16
f 11/30/15 12/29/15 14/2/1 13/1/1
f 33/26/13 34/25/13 4/33/3 3/34/3
f 23/32/16 24/31/16 26/18/9 25/17/9
f 30/35/17 28/36/17 26/37/17 24/38/17 22/36/17 20/35/17 18/39/17 16/39/18 14/36/17 12/21/17 10/37/17 8/37/18 6/37/17 4/40/17 34/38/17 32/38/18
f 1 1 1
f 1 1 1
f 1 1 1
f 1 1 1
f 1 1 1
f 1 1 1
f 1 1 1
f 1 1 1
f 47/1/19 48/2/19 50/3/20 49/4/20
f 37/5/21 38/6/21 40/7/22 39/8/22
f 63/9/23 64/10/23 66/11/24 65/12/24
f 49/4/20 50/3/20 52/13/25 51/14/25
f 39/8/22 40/7/22 42/15/26 41/16/26
f 59/17/27 60/18/27 62/19/28 61/20/28
f 51/14/25 52/13/25 54/21/29 53/22/29
f 41/16/26 42/15/26 44/23/30 43/24/30
f 65/12/24 66/11/24 68/25/31 67/26/31
f 53/22/29 54/21/29 56/27/32 55/28/32
f 43/24/30 44/23/30 46/29/33 45/30/33
f 61/20/28 62/19/28 64/10/23 63/9/23
f 55/28/32 56/27/32 58/31/34 57/32/34
f 45/30/33 46/29/33 48/2/19 47/1/19
f 67/26/31 68/25/31 38/33/21 37/34/21
f 57/32/34 58/31/34 60/18/27 59/17/27
f 64/35/35 62/36/35 60/37/35 58/38/35 56/36/35 54/35/35 52/39/35 50/39/18 48/36/35 46/21/35 44/37/35 42/37/18 40/37/35 38/40/35 68/38/35 66/38/18
f 1 1 1
f 1 1 1
f 1 1 1
f 1 1 1
f 1 1 1
f 1 1 1
f 1 1 1
f 1 1 1
f 69/5/35 70/6/35 72/33/35 71/34/35
f 71/5/36 72/6/36 74/33/36 73/34/36
f 73/5/37 74/6/37 76/33/37 75/34/37
f 75/5/38 76/6/38 70/33/38 69/34/38
f 70/5/17 76/6/17 74/33/17 72/34/17
f 75/5/39 69/6/39 71/33/39 73/34/39
f 77/5/35 78/6/35 80/33/35 79/34/35
f 79/5/36 80/6/36 82/33/36 81/34/36
f 81/5/37 82/6/37 84/33/37 83/34/37
f 83/5/38 84/6/38 78/33/38 77/34/38
f 78/5/17 84/6/17 82/33/17 80/34/17
f 83/5/39 77/6/39 79/33/39 81/34/39

